<?xml version="1.0" encoding="UTF-8"?>
<svg xmlns="http://www.w3.org/2000/svg" viewBox="0 0 2304.04 2500">
  <g id="logo">
  
  <!-- Generator: Adobe Illustrator 30.0.0, SVG Export Plug-In . SVG Version: 2.1.1 Build 123)  -->
  <defs>
    <style>
      .st0 {
        fill: #fff;
      }

      .st1 {
        fill: none;
        stroke: #006838;
        stroke-miterlimit: 10;
      }

      .st2 {
        fill: #006838;
      }
    </style>
  </defs>
  <rect class="st0" x="0" y="0" width="2304.04" height="2345"/>
  <g>
    <g>
      <path class="st2" d="M1912.7,1601.27c-78.21,0-156.43,0-234.64,0-11.95,0-22.96,1.3-34.61,6.72-11.75,5.46-26.4,6.09-39.82,6.3-59.25.9-118.52.97-177.78,1.18-49.39.18-98.79.08-148.18.19-74.95.16-149.91.34-224.86.59-76.49.25-152.98.59-229.47.88-63.73.24-127.45.46-191.18.66-7.57.02-15.41,1.01-22.64-.59-7.02-1.55-15-4.36-19.72-9.32-7.14-7.48-14.65-9.85-24.44-9.88-135.57-.4-271.15-1.03-406.72-1.61-2.81-.01-5.66-.41-8.42-.05-8.63,1.13-11.14-2.95-11.13-11.03,0-8.51,4.53-9.82,11.51-9.79,44.12.14,88.25-.05,132.37.13,92.25.37,184.5.87,276.76,1.38,12.51.07,22.69-3.89,29.38-15.11,4.84-8.12,12.45-10.36,21.55-10.36,86.22-.05,172.43-.19,258.65-.53,43.17-.17,86.33-1.12,129.49-1.01,10.66.03,22.39-2.16,31.35,7.53,1.84,1.99,7.46,2.95,9.79,1.64,22.72-12.83,47.71-9.36,71.79-9.62,74.13-.79,148.26-.15,222.4-.34,61.25-.16,122.49-.92,183.74-.89,11.37,0,22.73,2.61,34.1,3.89,2.33.26,4.85.51,7.06-.07,33.14-8.63,66.86-3.08,100.3-3.86,13.04-.3,14.38,13.79,17.2,21.79,3.19,9.05,7.55,9.68,14.66,9.7,84.24.18,168.48.42,252.71.62,72.2.17,144.41.36,216.61.34,8.34,0,14.88-.19,14.56,11.48-.33,12.12-8.05,10.69-15.7,10.69-82.22-.01-164.45,0-246.67,0,0-.55,0-1.1,0-1.65Z"/>
      <path class="st2" d="M1929.35,1519.55c-76.62,0-153.23-.12-229.85.21-6.92.03-13.81,3.1-20.75,4.55-8.92,1.87-17.83,4.6-26.84,5.08-20,1.05-40.07,1.44-60.09.97-5.65-.13-11.04-4.9-16.85-6.21-5.54-1.24-13.48-3.2-16.82-.48-7.4,6.01-14.8,6.42-23.41,6.45-43.28.16-86.55.98-129.83,1.2-58.11.29-116.21.04-174.32.41-40.79.26-81.57,1.28-122.36,1.7-9.02.09-19.15,1.33-22.27-11.08-.25-.98-1.45-1.89-2.41-2.5-6.97-4.47-43.96-1.89-49.6,4.4-7.21,8.04-15.78,9.71-25.9,9.67-58.95-.21-117.91.02-176.86-.06-74.06-.09-148.12-.16-222.17-.82-5.95-.05-13.16-3.27-17.51-7.41-7.3-6.94-14.85-9.57-24.75-9.59-137.99-.34-275.97-.95-413.96-1.61-5.47-.03-12.58,2.36-13.48-7.35-.84-8.95.25-13.75,11.57-13.69,134.78.75,269.57.7,404.36,1.76,14.66.12,24.59-5.29,32.72-15.48,5.82-7.29,12.32-10.62,21.51-10.62,57.34.02,114.69-.13,172.03-.36,84.92-.35,169.84-.73,254.76-1.31,12.56-.09,18.03,8.21,21.3,17.77,3.3,9.64,9.59,10.34,18.22,11.54,18.65,2.58,33.4-7.48,47.95-14.88,19.22-9.78,38.31-15.11,59.66-15.12,102.14-.05,204.28-.45,306.42-.79,17.64-.06,35.27-.28,52.9-.73,10.7-.27,19.31,1.43,24.43,12.91,4.7,10.56,15.71,6.63,20.6,2.25,20.84-18.67,45.37-17.03,70.19-15.82,4.8.23,9.62.08,14.41.45,23.1,1.79,25.9,4.51,32.87,27.29.79,2.58,6.63,5.01,10.19,5.11,22.85.62,45.73.67,68.59.73,125.16.32,250.32.55,375.48.97,6.48.02,15.23-2.97,15.51,9.2.2,9.06-2.15,12.67-12.2,12.62-77.81-.42-155.63-.23-233.44-.23,0-.37,0-.73,0-1.1Z"/>
      <path class="st2" d="M140.19,1261.59c0-6.59,0-12.07,0-20.24,20.34,0,40.59-.08,60.84.02,49.72.23,99.44.61,149.16.81,68.2.27,136.41-.11,204.59,1.05,16.41.28,27.81-5.87,36.76-17.74,5.98-7.93,12.71-10.79,22.41-10.79,86.99.07,173.97-.11,260.96-.46,95.44-.39,190.88-1.11,286.32-1.59,88.87-.45,177.74-.66,266.6-1.31,11.15-.08,18.19,2.46,20.77,14.73.78,3.71,7.95,8.83,11.99,8.66,26.33-1.15,53.09-1.12,78.8-6.15,39.86-7.8,78.67-7.54,117.51,3.84,1.52.45,3.33.84,4.36,1.89,13.4,13.63,30.61,11.55,47.28,11.6,150.43.46,300.86.87,451.29,1.52,5.49.02,13.62-3.64,15.09,6.79,1.59,11.38-.67,14.38-12.45,14.38-86.25-.06-172.5-.16-258.75-.36-70.2-.16-140.4-.64-210.6-.43-5.97.02-11.8,4.63-17.91,6.25-7.6,2.02-15.42,4.31-23.18,4.48-37.1.79-74.22,1.08-111.33,1.21-79.22.29-158.44.42-237.66.51-18.85.02-37.73.17-56.53-.88-7.8-.44-15.35-4.27-23.16-5.85-12.42-2.51-24.9-5.46-37.47-6.2-7.55-.44-16.03,1.53-22.86,4.92-21.24,10.53-43.96,8.32-66.14,8.43-125.38.62-250.77.49-376.16.74-35.08.07-70.17,1.21-105.22.34-8.04-.2-15.87-6.84-23.91-10.28-5.93-2.54-12.01-6.63-18.07-6.71-63.38-.75-126.77-.8-190.15-1.11-78.23-.39-156.45-.84-234.68-1.3-2.37-.01-4.73-.41-8.5-.77Z"/>
      <path class="st2" d="M141.07,1411.35c34.49,0,68.52-.08,102.55.01,105.49.29,210.98.63,316.48,1.06,7.17.03,12.19-1.62,17.4-7.72,11.12-13.02,24.53-20.88,43.61-20.85,121.36.17,242.73-.89,364.09-1.46,23.66-.11,47.32.14,70.98.28,18.17.11,26.48,6.51,33.19,23.29,1.44,3.6,6.83,7.85,10.52,7.96,29.25.89,58.53.94,87.8.96,2.91,0,6.46-1.14,8.63-3.01,25.87-22.34,55.7-31.76,89.88-31.43,62.13.61,124.28-.31,186.43-.55,10.41-.04,20.95-.85,31.18.53,5.94.8,11.21,5.75,17.12,7.89,4.03,1.46,9.28,2.96,12.89,1.58,22.51-8.59,43.47-9.15,63.41,7.06,2.94,2.39,12.3,1.82,14.77-.92,16.03-17.76,36.14-18.33,57.42-16.04,5.16.55,10.41.36,15.62.42,19.83.21,30.49,8.15,35.02,27.51,2.15,9.2,8.83,8.06,14.97,8.1,40.11.23,80.22.26,120.34.33,102.29.17,204.57.38,306.86.38,8.54,0,13.29,1.45,13.06,11.83-.23,10.59-6.25,10.09-13.45,10.07-147.21-.45-294.43-.91-441.64-1.01-6.81,0-13.54,3.68-20.44,4.9-10.54,1.86-21.16,3.63-31.82,4.4-11.57.83-23.34,1.48-34.81.27-7.86-.82-15.21-6.32-23.08-7.23-9.08-1.05-18.6-.06-27.71,1.37-7.19,1.13-14.05,6.16-21.09,6.24-64.9.75-129.8.75-194.7,1.06-56.09.27-112.18.72-168.27.98-7.19.03-14.45.43-17.53-9-.76-2.31-6.44-4.23-9.88-4.27-30.08-.33-60.17-.25-90.25-.14-3.53.01-8.32-.29-10.39,1.73-15.39,15.04-34.95,12.32-53.34,12.46-87.59.66-175.18.59-262.77.84-39.6.11-79.21.59-118.81.44-10.77-.04-21.58-1.49-32.29-2.9-3.79-.5-8.93-1.77-10.72-4.5-7.61-11.55-19.11-10.02-30.04-10.06-135.17-.56-270.35-.97-405.52-1.47-18.44-.07-18.44-.16-15.65-21.38Z"/>
      <path class="st2" d="M1891.1,1683.09c-89.47,0-178.94-.07-268.41.16-5.81.02-12.56.9-17.22,3.92-11.86,7.71-24.78,8.54-38.04,8.61-133.44.77-266.89,1.41-400.33,2.26-51.53.33-103.06,1.2-154.59,1.57-28.43.2-56.87.11-85.3-.48-3.91-.08-9.62-2.81-11.28-6-6.02-11.54-22.49-16.26-30.22-6.17-8.9,11.61-19.61,12.66-32.58,12.62-74.5-.21-149,.15-223.5.41-14.02.05-26.71-1.69-36.74-13.71-3.36-4.03-11.3-5.87-17.17-5.91-64.99-.46-129.99-.22-194.98-.47-76.22-.29-152.44-.89-228.66-1.34-7.09-.04-13.32.44-13.29-10.33.04-11.19,6.45-10.92,14.09-10.89,91.47.45,182.93.87,274.4,1.22,47.34.18,94.68.17,142.02.35,9.26.04,17.88-1.25,22.81-10.22,6.31-11.48,16.57-13.71,28.48-13.71,54.09-.01,108.17-.29,162.26-.47,107.78-.35,215.55-.65,323.33-1.05,108.99-.4,217.98-.84,326.96-1.38,58.02-.29,116.04-.87,174.06-1.25,17.36-.11,21.01,2.18,23.22,18.58,1.38,10.24,6.33,12.02,15.28,12.03,108.73.08,217.46.41,326.19.71,64.18.18,128.35.51,192.53.47,7.94,0,10.59,2.95,10.69,10.54.11,8.66-3.07,11.9-12.06,11.82-63.77-.56-127.55-.7-191.32-.9-26.87-.09-53.75-.01-80.62-.01,0-.33,0-.66,0-.99Z"/>
      <path class="st2" d="M1577.08,1745.64c8.87,0,16.39-.01,23.9,0,128.37.27,256.74.58,385.11.8,58.97.1,117.94.12,176.91-.06,7.56-.02,12.06,1.25,12.23,10.33.17,9.75-4.22,12.24-13.03,12.2-124.75-.61-249.5-1.13-374.25-1.47-75.42-.21-150.84-.18-226.27.03-6.2.02-12.91,1.16-18.52,3.7-21.47,9.75-44.29,6.52-66.47,6.99-72.41,1.54-144.85,2.05-217.27,2.49-45.05.28-90.1-.53-135.15-.4-53.19.14-106.38,1.07-159.57,1.1-66.48.04-132.96-.6-199.45-.7-42.01-.06-84.03.27-126.04.55-13.25.09-25.14-2.31-35-12.52-3.02-3.12-9.31-4.28-14.11-4.31-146.42-.82-292.84-1.42-439.25-1.88-7.57-.02-12.02-1.17-11.86-10.36.16-9.31,4.21-11.06,12.62-11.01,103.49.69,206.98,1.12,310.47,1.46,39.3.13,78.61.46,117.87-.72,7.26-.22,16.77-5.51,20.96-11.47,8.5-12.1,19.33-13.94,32.33-13.9,56.95.2,113.9.22,170.85.05,79.98-.24,159.95-.71,239.93-1.05,76.91-.33,153.81-.61,230.72-.91,93.77-.37,187.55-.75,281.32-1.12,17.26-.07,19.04,1.44,20.96,18.48.4,3.51.06,7.11.06,13.71Z"/>
      <path class="st2" d="M141.11,1346.69c-4.33-19.2-3.93-19.93,14.34-19.91,129.97.17,259.94.03,389.9,1.14,17.12.15,29.25-5.69,42.03-15.27,7.49-5.61,17.61-10.71,26.61-10.82,79.71-1,159.44-.73,239.17-1.05,63.73-.25,127.47-.83,191.2-1.18,13.6-.08,27.22.55,40.81.21,16.96-.43,25.38,10.51,33.44,22.96,2.11,3.26,6.86,6.77,10.44,6.81,43.32.53,86.64.34,129.97.6,8.04.05,10.84-2.99,11.98-11.11,2.56-18.32,5.45-20.04,24.19-20.25,55.31-.61,110.61-1.54,165.92-1.86,70.84-.42,141.69-.17,212.53-.66,20.48-.14,33.71,10.31,42.49,27.06,4.18,7.99,10.34,7.89,17.07,7.92,49.75.18,99.49.24,149.24.35,93.47.21,186.94.52,280.4.5,8.66,0,12.36,2.55,12.36,11.53,0,9.38-5.37,10.03-12.53,10.01-132.78-.37-265.57-.65-398.35-.94-15.24-.03-30.59-1.05-45.7.39-14.04,1.34-27.71,6.28-41.74,7.96-12.64,1.51-25.54.91-38.33.91-3.1,0-6.45-.81-9.27-2.14-26.76-12.61-53.42-8.12-80.87-1.77-16.84,3.9-34.71,4.3-52.14,4.52-61.32.77-122.64.81-183.97,1.04-9.2.03-18.42-.14-27.6-.74-3.43-.22-8.69-.96-9.8-3.14-4.73-9.33-12.77-8.1-20.66-8.11-48.94-.08-97.88-.27-146.82-.06-4.86.02-11.2,1.03-14.26,4.13-8.02,8.14-17.69,8.85-27.74,8.88-87.31.29-174.62.5-261.92.67-60.88.12-121.76.18-182.64.13-10.54,0-20-2.03-28.42-10.21-4.41-4.29-12.97-5.92-19.68-5.99-66.99-.63-133.99-.64-200.99-.9-75.42-.29-150.83-.66-226.25-1.02-1.53,0-3.06-.37-4.4-.55Z"/>
      <path class="st2" d="M1514.03,1828.93c4.26.45,8.42,1.27,12.58,1.28,115.54.26,231.07.34,346.61.66,96.27.27,192.54.82,288.81,1.18,7.28.03,13.34-.12,12.97,10.47-.3,8.36-2.73,11.2-11.17,11.05-29.68-.54-59.37-.53-89.05-.59-194.96-.4-389.91-.87-584.87-.82-10.31,0-20.56,6.24-30.95,6.61-46.8,1.67-93.63,2.6-140.46,3.17-40.48.49-80.98,0-121.46.18-113.31.49-226.63,1.13-339.94,1.63-66.84.3-133.68.4-200.52.69-10.01.04-18.48-1.72-25.74-10.05-3.21-3.68-10.66-5.08-16.19-5.12-86.65-.52-173.3-.51-259.95-.91-67.79-.31-135.58-1.01-203.37-1.52-5.99-.04-12.28,1.28-12.21-8.41.06-9.07,3.12-12.75,12.74-12.67,69.8.59,139.6.76,209.4,1.01,78.62.29,157.24.25,235.85,1.08,11.83.13,15.08-8.58,19.35-15.09,6.61-10.08,14.97-13.61,26.14-13.64,58.86-.12,117.71-.22,176.56-.57,64.3-.38,128.59-1.28,192.89-1.51,111.85-.39,223.7-.41,335.55-.64,46.83-.1,93.71.9,140.46-1.01,24.32-1,30.07,10.39,25.96,33.54Z"/>
      <path class="st2" d="M141.08,1177.1c-2.15-20.54-2.15-20.68,16.3-20.66,138.4.16,276.79.11,415.18,1.03,11.93.08,18.2-5.8,23.61-12.97,8.15-10.82,18.63-12.56,30.66-12.58,88.18-.14,176.36-.43,264.54-.58,50.79-.09,101.58.15,152.37-.02,67.74-.22,135.48-.82,203.22-1.04,66.84-.22,133.69.23,200.52-.51,17.08-.19,28.81,8.03,37.04,20.4,6.07,9.12,13.14,10.57,22.16,10.59,62.58.1,125.16.18,187.74.27,153.64.22,307.28.44,460.92.67,3.21,0,6.44.36,9.62.11,9.15-.71,10.19,4.6,10.29,12.06.12,8.4-3.94,9.9-11.17,9.86-107.49-.51-214.99-1-322.48-1.18-115.53-.2-231.07-.08-346.6-.05-3.99,0-8.85-.84-11.82,1.05-26.52,16.92-56.14,10.48-84.49,10.95-64.53,1.06-129.09.39-193.64.64-70.35.28-140.7.87-211.05,1.2-81.37.38-162.75.71-244.13.9-43.23.1-86.46.05-129.69-.43-9.85-.11-19.46-1.22-26.13-11.56-2.54-3.95-11.19-5.46-17.08-5.52-55.35-.53-110.7-.43-166.06-.65-86.24-.35-172.48-.79-258.72-1.24-3.52-.02-7.04-.46-11.11-.74Z"/>
      <path class="st2" d="M1817.91,1097.72c-114.34,0-228.67.02-343.01-.04-7.07,0-12.45.73-17.02,8.06-2.52,4.05-10.94,6.13-16.72,6.18-62.49.59-124.99.44-187.48.82-55.33.34-110.65,1.44-165.97,1.57-95.69.23-191.38.04-287.08-.13-56.52-.1-113.03-.51-169.55-.8-11.19-.06-22.42,1.11-27.99-12.94-1.3-3.27-9.56-5.27-14.64-5.32-71.8-.72-143.61-1.05-215.42-1.39-73.8-.34-147.61-.83-221.41-.61-10.84.03-11.34-5.44-11.76-13.22-.51-9.34,6-7.74,11.39-7.73,113.93.3,227.86.64,341.79.99,28.08.09,56.16-.1,84.23.44,15.95.31,28.25-6.15,39.83-16.51,4.54-4.06,11.92-6.9,18.04-6.95,58.94-.46,117.88-.01,176.82-.22,51.3-.18,102.59-1.11,153.89-1.29,57.73-.2,115.46.3,173.19.1,78.08-.28,156.16-.97,234.24-1.4,14.43-.08,28.87.16,43.3.37,16.9.24,26.36,14.07,39.31,21.56,5.17,2.99,11.02,6.79,16.58,6.81,162.88.61,325.75.8,488.63,1.03,67,.09,133.99.14,200.99.15,7.24,0,13.46-.03,13.47,10.37,0,10.1-4.76,11.68-13.43,11.66-114.73-.2-229.47-.14-344.21-.14v-1.44Z"/>
      <path class="st2" d="M1791.69,1933.54c-121.97,0-243.94-.1-365.91.25-7.54.02-14.98,4.06-22.61,5.43-9.71,1.74-19.56,3.71-29.36,3.76-88.58.44-177.16.3-265.74.71-48.77.22-97.54,1.61-146.31,1.71-80.19.16-160.39-.31-240.59-.5-20.78-.05-41.57.08-62.35-.21-3.4-.05-8.24-.74-9.92-3-8.53-11.46-20.36-10.81-32.58-10.86-141.6-.58-283.21-1.36-424.81-2.05-14.04-.07-28.08,0-42.12.25-6.44.12-10.64-.73-10.37-9.03.27-8.19,1.91-12.32,11.46-12.24,56.57.46,113.14.36,169.72.46,67.79.13,135.57.23,203.36.44,30.09.09,60.19-.02,90.26.82,12.05.34,20.33-4.12,25.07-14.6,4.36-9.62,11.65-11.91,21.36-11.87,53.22.21,106.45.34,159.67,0,93.29-.58,186.57-1.72,279.86-2.24,86.57-.48,173.15-.47,259.73-.66,22.46-.05,44.93.48,67.37-.27,16.46-.55,19.4,8.36,15.04,20.57-4.59,12.9,2.62,11.83,10.04,11.84,107.53.14,215.05.05,322.58.26,83.85.16,167.7.71,251.56.97,45.32.14,90.65.2,135.97-.13,7.85-.06,12.99,0,12.93,10.25-.06,9.64-4.33,11.03-12.59,11.01-123.57-.2-247.15-.14-370.72-.14,0-.31,0-.62,0-.94Z"/>
      <path class="st2" d="M1795.8,1013.9c-121.14,0-242.28.02-363.42-.04-7.44,0-13.56.03-17.43,8.94-1.54,3.55-10.21,5.57-15.65,5.62-48.53.45-97.06.15-145.59.36-114.89.52-229.78,1.13-344.68,1.84-52.41.32-104.83,1.19-157.24,1.38-34.84.12-69.68-.34-104.51-.98-10.28-.19-20.28-.72-26.71-12.22-2.55-4.56-11.41-7.83-17.43-7.87-140.38-.99-280.76-1.45-421.14-2.01-10.43-.04-20.88-.57-31.28,0-8.11.44-10.53-2.81-10.47-10.47.06-7.49,2.33-10.73,10.4-10.66,48.93.4,97.87.33,146.8.53,103.48.42,206.95,1.16,310.43.92,8.62-.02,19.69-4.22,25.28-10.4,9.12-10.09,18.8-13.47,31.55-13.38,48.53.34,97.06.39,145.59.24,57.68-.18,115.37-.97,173.05-.94,69.77.03,139.53.45,209.3,1.24,8.1.09,16.12,3.8,24.26,5.42,12.03,2.41,24.08,4.91,36.24,6.4,4.01.49,9.85-.68,12.35-3.4,9.55-10.36,21.54-8.87,33.48-8.82,19.65.08,39.43-1.33,58.9.54,11.33,1.09,23,5.89,33.03,11.62,12.97,7.41,25.1,14.37,40.92,14.36,121.94-.15,243.88.22,365.82.43,119.94.21,239.88.42,359.83.64,2.4,0,4.83.43,7.21.26,6.95-.52,11.45.59,11.09,9.54-.33,8.35-2.63,12.69-11.72,12.48-14.83-.34-29.68-.04-44.52-.04-107.9,0-215.81,0-323.71,0,0-.51,0-1.01,0-1.52Z"/>
      <path class="st2" d="M1755.94,2018.02c-135.2,0-270.4-.05-405.59.17-5.76,0-12.09,1.31-17.16,3.94-17.24,8.95-35.47,11.48-54.57,11.45-69.75-.1-139.5.3-209.25.25-40.89-.03-81.78-.83-122.66-.77-84.51.12-169.01.55-253.52.94-14.36.07-27.58-1.29-38-13.56-3.13-3.69-10.87-4.75-16.52-4.8-57.37-.57-114.74-.67-172.11-.92-105.1-.46-210.21-.93-315.31-1.37-6.69-.03-12.5.39-12.55-9.63-.05-10.55,5.15-11.27,13.56-11.24,155.66.63,311.31.91,466.97,1.69,12.98.07,23.07-1.59,30.02-14.25,6.56-11.96,18.86-13.25,31.45-13.15,36.79.3,73.59.45,110.39.23,105.81-.61,211.62-1.54,317.43-2.12,62.95-.35,125.91-.29,188.86-.38,18.83-.03,37.67-.1,56.5.11,19.99.22,21.35.55,20.8,19.78-.31,10.91,4.1,11.74,12.34,11.77,53.76.18,107.51.64,161.27.87,85.04.36,170.08.7,255.12.89,119.14.27,238.29.35,357.43.69,5.21.02,12.75-3.25,13.74,6.77.9,9.1-.88,14.31-11.9,14.18-39.3-.47-78.61-.22-117.92-.22-96.26,0-192.53,0-288.79,0,0-.44,0-.88,0-1.32Z"/>
      <path class="st2" d="M1763.75,929.05c-131.56,0-263.13,0-394.69,0-8.3,0-17.13-1.7-18.65,11.01-.28,2.35-6.93,5.51-10.71,5.61-21.19.56-42.47,1.24-63.57-.19-7.55-.51-14.77-6.68-22.01-10.52-3.12-1.66-5.84-5.57-8.85-5.69-17.6-.71-35.25-.94-52.86-.43-2.76.08-7.06,4.43-7.74,7.47-1.98,8.79-7.88,10.36-15.19,10.4-20.46.1-41.01,1.25-61.33-.38-8.73-.7-17.98-5.95-25.23-11.46-12.17-9.24-15.82-8.68-22.62,4.7-1.85,3.63-8.73,6.49-13.39,6.62-31.62.89-63.26,1.14-94.89,1.24-90.48.28-180.95.42-271.43.51-6.78,0-13.74-.14-20.29-1.61-3.83-.86-9.16-3.87-10.13-7.03-3.49-11.49-11.64-12.73-21.57-12.76-91.05-.29-182.1-.74-273.15-1.14-67.39-.29-134.77-.6-202.16-.82-7.28-.02-13.21.19-13.04-10.44.16-9.86,4.81-10.9,12.7-10.87,143.59.66,287.18,1.19,430.78,1.68,17.64.06,35.37.72,52.88-.91,7.98-.74,17.18-4.66,22.85-10.19,8.81-8.6,18.06-12.25,29.96-12.2,50.53.18,101.06.16,151.59-.04,45.6-.18,91.2-.66,136.79-1.07,14.36-.13,27.6,3.21,39.96,10.82,6.41,3.94,13.45,7.14,20.59,9.54,11.67,3.91,15.38.72,20.45-10.88,1.84-4.22,8.33-8.66,12.99-9,15.14-1.13,30.53-1.48,45.61,0,9.62.94,20.84,3.26,27.94,9.1,25.36,20.87,54.65,17.01,83.59,15.95,2.64-.1,6.7-5.31,7.32-8.67,2.15-11.63,8.7-15.9,20.09-16.25,23.89-.73,46.37.85,67.99,14.31,12.52,7.79,27.72,12.18,44.3,12.17,251.1-.07,502.2.61,753.3,1.11,14.04.03,28.08.27,42.11-.02,7.78-.16,11.76,1.99,11.84,10.8.08,8.65-3.37,11.12-11.42,11.07-42.92-.24-85.83-.18-128.75-.19-90.65-.01-181.31,0-271.96,0,0-.44,0-.87,0-1.31Z"/>
      <path class="st2" d="M1708.23,2099.19c-150.44,0-300.88-.01-451.33.07-4.35,0-9.24.02-12.96,1.88-28.47,14.24-59.14,12.87-89.5,12.93-99.84.2-199.67-.02-299.51.07-31.61.03-63.24,1.39-94.8.39-11.17-.35-22.11-6.19-33.27-9.03-11.88-3.01-23.88-7.66-35.87-7.77-125.17-1.12-250.34-1.48-375.51-2.01-54.96-.23-109.91-.51-164.87-.38-9.27.02-13.25-2.76-12.48-12.42.72-8.98,6.7-8.57,12.86-8.54,44.92.22,89.84.54,134.76.67,92.67.28,185.35.45,278.02.7,36.11.09,72.22.06,108.32.5,9.12.11,14.68-1.98,14.65-12.39-.03-10.75,8.07-11.57,16.02-11.62,26.06-.18,52.13-.19,78.19-.25,84.13-.19,168.26-.21,252.39-.59,81.28-.36,162.56-1.05,243.84-1.69,14.7-.11,15.53.38,14.24,14.94-.87,9.76,2.71,13.5,12.89,13.48,67-.17,134,.17,201,.31,171.72.38,343.44.71,515.16,1.14,47.73.12,95.47.69,143.2.67,8.57,0,11.11,3.29,11.06,11.41-.05,8.69-4.64,9.44-11.61,9.42-76.21-.31-152.42-.46-228.63-.54-75.42-.08-150.84-.02-226.25-.02,0-.44,0-.88,0-1.33Z"/>
      <path class="st2" d="M1724.48,843.69c-142.81,0-285.62,0-428.43.02-10.02,0-21.01-2.76-25.02,11.79-.71,2.58-8.9,3.37-13.75,4.5-19.41,4.54-37.25,3.16-51.95-12.73-2.5-2.7-8.01-3.59-12.15-3.65-23.26-.38-46.53-.17-69.8-.34-7.26-.05-11.72,1.73-13.64,10.06-.84,3.67-7.24,8.38-11.34,8.6-17.19.93-34.48.84-51.69.06-6.07-.28-12.05-3.49-17.99-5.59-11.28-4-22.28-9.29-33.87-11.71-4.71-.98-14.34,3.03-15.44,6.67-3.78,12.48-13.37,11.84-22.1,11.85-75.1.1-150.19-.22-225.29-.46-12.41-.04-24.86.2-37.22-.68-8.18-.58-16.41-1.36-19.44-12.42-.99-3.61-9.2-7.38-14.15-7.44-64.17-.82-128.34-1.03-192.52-1.29-105.51-.43-211.01-.82-316.52-1.06-7.59-.02-11.69-1.26-11.81-10.45-.13-9.82,4.38-11.18,12.44-11.14,80.63.39,161.27.59,241.9.8,87.46.23,174.92.27,262.38.79,14.15.08,26.51-1.78,37.52-12.07,15.54-14.52,34.58-11.99,52.07-5.22,14.68,5.68,27.75,4.83,41.94-.18,8.51-3,17.81-5.25,26.77-5.28,80.2-.28,160.4-.36,240.59.61,9.43.11,20.13,5.15,27.82,11.05,10.36,7.96,20.44,13.32,33.7,13.03,18.85-.41,37.71-.19,56.56,0,7.23.08,12.33-.85,12.44-10.15.11-9.6,6.12-15.14,15.76-13.78,10.12,1.43,21.1,2.46,29.81,7.17,22.05,11.92,44.9,17.29,69.93,17.28,100.69-.06,201.38.81,302.06.99,167.29.3,334.57.32,501.86.48,18.85.02,37.7.25,56.56.2,7.93-.02,14.05.52,13.64,11.43-.38,10.14-6.19,10.43-13.55,10.4-76.62-.23-153.25-.43-229.87-.52-69.41-.08-138.81-.02-208.22-.02,0-.54,0-1.07,0-1.61Z"/>
      <path class="st2" d="M142.18,648.82c9.57,0,19.49-.03,29.4,0,193.38.63,386.76,1.26,580.14,1.92,6.01.02,12.42,1.73,17.94.16,6.32-1.8,14.1-4.98,17.24-10.05,5.92-9.57,13.21-12.88,23.75-12.82,65.39.32,130.79.39,196.18.56,28.07.08,56.15.45,84.22.19,11.48-.11,21.06,2.87,29.25,11.24,8.73,8.93,19.44,12.91,32.31,12.9,111.94-.05,223.87.28,335.81.44,117.15.17,234.29.17,351.44.44,106.71.25,213.43.73,320.14,1.29,5.84.03,13.55-2.57,15.58,6.89,2.31,10.74-1.33,14.91-13.54,14.9-92.28-.14-184.56-.35-276.84-.51-124.35-.22-248.7-.29-373.05-.64-111.52-.32-223.05-.94-334.57-1.39-8.02-.03-16.16-.54-24.02.68-3.83.6-9.25,4.01-10.25,7.28-2.37,7.79-7.04,9.97-14.2,10.02-34.88.25-69.77.66-104.65.88-32.77.2-65.55.26-98.33.32-31.61.06-63.23.65-94.81-.39-7.66-.25-16.62-4.37-22.35-9.6-7.83-7.16-15.77-9.86-25.92-9.89-102.7-.3-205.41-.8-308.11-1.3-95.88-.47-191.76-1.01-287.64-1.49-9.62-.05-19.25.16-28.87.18-19.55.05-20.27-.86-16.27-22.22Z"/>
      <path class="st2" d="M1689.89,759.5c-108.71,0-217.43.09-326.14-.04-47.74-.05-95.48-.52-143.22-.84-8.55-.06-16.11-.43-19.87,10.75-1.28,3.79-11.4,6.65-17.29,6.34-7.27-.39-15.44-3.03-21.3-7.32-19.23-14.1-40.75-9.09-61.67-8.93-3.63.03-7.76,2.49-10.76,4.93-13.78,11.23-29.34,14.44-46.95,14.29-67.59-.56-135.18-.21-202.77,0-12.8.04-24.3-.32-31.41-14.28-2.03-4-10.9-6.31-16.66-6.35-121.15-.82-242.31-1.14-363.46-1.7-91.47-.43-182.94-1.03-274.41-1.68-5.91-.04-13.18,2.28-13.61-8.45-.38-9.71,2.13-13.19,12.58-13.07,67.79.78,135.59.96,203.38,1.18,142.43.47,284.85.76,427.28,1.4,16.16.07,29.62-3.13,39.89-17.19,3.03-4.15,11.09-6.45,16.87-6.49,47.68-.32,95.37.1,143.05.29,28.79.12,57.63,1.28,86.36-.08,15.06-.71,23.34,7.4,33.01,15.91,4.62,4.07,11.18,6.58,17.28,8.17,6.73,1.75,10.67-1.33,9.58-9.24-1.26-9.17,3.34-14,12.39-13.08,7.84.8,17.33.56,23.01,4.86,23.77,17.99,50.61,18.73,78.57,18.68,114.35-.21,228.69.42,343.04.62,152.84.26,305.67.36,458.51.61,39.31.06,78.63.51,117.94.51,7.99,0,12.38,1.3,12.55,11.1.19,10.53-5.33,10.6-12.79,10.58-111.53-.31-223.07-.56-334.6-.76-46.13-.08-92.26-.01-138.4-.01,0-.23,0-.47,0-.7Z"/>
      <path class="st2" d="M142.24,564.27c16.34,0,33.06-.05,49.79,0,188.92.66,377.84,1.31,566.77,2.06,11.83.05,21.45-3.22,30-12.17,4.47-4.68,12.23-8.47,18.63-8.66,27.65-.84,55.35-.52,83.01.2,4.31.11,9.59,3.49,12.56,6.96,10.76,12.55,22.99,13.15,35.43,2.7,5.95-5,14.25-9.87,21.6-10.06,34.37-.88,68.8-.36,103.19.32,5.08.1,11.85,2.32,14.83,5.99,10.79,13.33,24.6,16.22,40.64,16.2,76.21-.12,152.42.29,228.64.42,271.14.44,542.29.83,813.43,1.31,6.8.01,14.61-2.25,15.31,9.56.74,12.46-5.68,13.47-15.42,13.42-126.75-.59-253.5-1.08-380.25-1.34-143.19-.3-286.39-.29-429.58-.53-75.81-.13-151.62-.46-227.43-.8-12.19-.05-24.05-1.26-29.25,14.43-1.09,3.29-10.25,5.41-15.74,5.5-41.28.69-82.58.75-123.86.98-38.79.22-77.57.59-116.36.53-11.16-.02-22.32-1.18-33.47-2.02-9.11-.68-16.03-4.28-22.57-11.61-4.58-5.13-13.73-8.63-20.86-8.69-128.35-.96-256.71-1.24-385.07-1.75-73-.29-146-.73-219-1.07-17.46-.08-18.53-1.4-14.96-21.88Z"/>
      <path class="st2" d="M1650.18,504.44c-145.21,0-290.43,0-435.64,0-21.26,0-42.66-1.55-63.73.42-19.69,1.84-39.03,7.45-58.53,11.35-15.17,3.04-30.26,7.76-45.56,8.6-27.2,1.49-54.55,1.15-81.8.39-7.78-.21-15.36-4.86-23.2-6.75-4.13-.99-8.8-1.21-12.94-.39-9.23,1.83-18.22,6.17-27.44,6.55-22.82.94-45.71.21-68.58.2-10.53,0-19.44-1.37-23.93-13.57-1.43-3.89-9.36-7.56-14.36-7.63-57.34-.8-114.7-.89-172.05-1.17-96.27-.47-192.54-1-288.81-1.41-60.17-.26-120.34-.46-180.51-.41-8.57,0-13.25-1.29-12.92-11.78.33-10.46,6.62-9.16,12.94-9.16,123.95.17,247.9.26,371.86.61,94.66.27,189.33.98,283.99,1.05,6.21,0,14.25-2.08,18.29-6.25,10.51-10.86,23.21-14.11,37.07-14.1,60.93.05,121.86.53,182.8.8,26.98.12,53.96.25,80.94.09,8.29-.05,14.73,1.3,17.57,10.62,2.6,8.55,9.59,10.28,18.07,10.3,120.75.2,241.49.68,362.24,1.02,115.53.33,231.05.65,346.58.83,80.62.13,161.25.03,241.87.04,15.2,0,30.41-.14,45.61.24,7.1.17,15.63-2.07,15.76,10.55.12,12.32-7.85,11.13-15.33,11.15-41.31.14-82.63.1-123.94.1-128.77,0-257.54,0-386.31,0,0-.77,0-1.54,0-2.31Z"/>
      <path class="st2" d="M1654.41,419.4c-168.1,0-336.2.05-504.3-.13-10.48-.01-18.29.84-17.76,14.37.09,2.25-5.48,6.67-8.56,6.79-21.17.85-43.12,4.36-63.37.1-20.71-4.36-39.47,3.63-59.34,1.82-19.88-1.82-40.01-1.09-60.04-1.17-24.82-.09-49.65.56-74.44-.18-4.2-.13-10.01-4.8-12-8.88-4.76-9.78-10.65-13.91-22.19-13.92-163.29-.26-326.57-1.03-489.86-1.75-62.99-.28-125.97-.76-188.96-1.06-7.3-.03-13.19.02-13.38-10.36-.19-10.64,5.82-10.37,13.12-10.34,120.76.35,241.52.63,362.28.93,102.71.25,205.42.49,308.13.75,8.82.02,17.66.06,26.47.41,10.22.4,17.8-4,26.03-9.98,7.55-5.48,18.1-9.44,27.37-9.53,51.18-.46,102.37.47,153.56.93,15.2.14,30.4.72,45.59.33,8.3-.21,14.02,2.75,17.37,10.04,3.34,7.27,8.86,9.12,16.49,9.12,85.46.04,170.92.29,256.37.59,65.78.23,131.57.76,197.35.9,162.09.36,324.17.57,486.26.85,28.89.05,57.77.19,86.66.16,6.91,0,12.46.01,12.46,9.82,0,9.27-3.79,11.64-12.23,11.6-56.17-.3-112.33-.35-168.5-.37-113.53-.04-227.05-.01-340.58-.01,0-.61,0-1.22,0-1.83Z"/>
      <path class="st2" d="M1104.6,2139.25c-3.69,2.1-7.17,4.8-11.12,6.17-5.66,1.97-11.91,2.34-17.4,4.62-3.16,1.31-5.31,5.04-7.91,7.69,3.25,1.6,6.49,4.53,9.77,4.58,34.09.46,68.19.52,102.29.57,217.42.27,434.83.42,652.25.8,109.5.2,219.01.85,328.51,1.19,7.26.02,13.78-.47,13.4,10.09-.29,7.93-2.65,11.46-11.31,11.38-44.93-.46-89.86-.42-134.79-.53-152.03-.39-304.06-.82-456.09-1.14-118.33-.25-236.67-.21-355-.56-212.55-.62-425.1-1.46-637.65-2.14-127.96-.41-255.92-.66-383.88-1.06-15.63-.05-31.27-.77-46.9-.69-6.5.03-10.91-.57-10.55-8.81.32-7.43,1.82-12.09,10.81-11.99,32.09.36,64.18.19,96.27.26,131.56.29,263.13.54,394.69.93,47.33.14,94.66.74,141.99.87,3.55,0,7.11-2.08,10.66-3.2-1.97-3.06-4-6.08-5.9-9.18-1.54-2.52-2.93-5.14-4.38-7.71,2.97-1.62,5.88-4.5,8.92-4.66,16.79-.88,33.62-1.31,50.44-1.51,49.22-.59,98.45-1.15,147.67-1.43,34.37-.19,68.75.04,103.12.23,3.71.02,7.42,1.02,11.12,1.57.32,1.22.65,2.44.97,3.66Z"/>
      <path class="st2" d="M1640.91,342.35c-166.88,0-333.76,0-500.64.01-8.02,0-16.05.2-24.07.22-6.39.01-11.68.66-13.31,8.83-.48,2.41-5.84,5.48-8.97,5.5-61.75.27-123.5.26-185.25-.21-3.9-.03-7.71-4.45-11.65-6.67-5.11-2.88-10.29-8.03-15.47-8.06-169.28-1.03-338.57-1.56-507.86-2.18-73.41-.27-146.82-.61-220.23-.85-7.12-.02-13.34.58-13.53-10.06-.2-10.81,5.57-11.36,13.62-11.33,151.64.56,303.27,1.03,454.91,1.47,94.25.27,188.5.42,282.74.78,8.54.03,14.53-2.13,20.48-9.37,9.03-10.98,21.01-17.23,36.72-16.84,37.28.91,74.59.47,111.89.24,10.43-.06,18.33,2.58,23.98,12.34,5.93,10.25,14.96,14.51,27.86,14.5,138.41-.08,276.82.58,415.22.95,163.27.44,326.53.78,489.8,1.17,48.54.11,97.08.28,145.62.28,7.51,0,13.03.33,13,10.6-.04,10.63-5.52,11.36-13.77,11.33-160.86-.59-321.72-1.02-482.58-1.47-12.83-.04-25.67,0-38.5,0,0-.39,0-.78,0-1.16Z"/>
      <path class="st2" d="M1617.31,257.37c-160.88,0-321.76,0-482.65,0-20.86,0-41.72.09-62.58.15-6.67.02-12.66.19-14.17,9.28-.43,2.57-6.15,5.98-9.51,6.07-29.24.76-58.51,1.16-87.76.77-4.09-.05-10.64-4.21-11.66-7.74-2.45-8.46-7.85-9.01-14.6-9.03-157.26-.52-314.53-1-471.79-1.64-103.1-.42-206.2-1.1-309.3-1.59-7.32-.04-13.21-.07-13.17-10.48.04-10.03,5.16-10.74,12.91-10.71,147.21.57,294.42,1,441.63,1.45,92.27.28,184.54.55,276.82.84,24.87.08,49.75.6,74.6.05,5.83-.13,11.71-3.53,17.35-5.95,11.89-5.11,23.25-11.78,35.53-15.52,11.08-3.37,20.92,2,29.43,9.84,8.65,7.96,18.18,12.25,31.07,12.26,178.13.11,356.26.95,534.39,1.55,120.76.41,241.52.77,362.29,1.09,69,.18,137.99.37,206.99.15,10.41-.03,13.37,4.3,12.54,13.74-.99,11.23-9.74,7.84-15.54,7.84-85.06.03-170.11-.41-255.17-.52-95.88-.12-191.76-.03-287.64-.03v-1.86Z"/>
      <path class="st2" d="M1158.28,171.59c-93.04,0-186.09.11-279.13-.03-137.98-.21-275.95-.56-413.93-.93-103.88-.28-207.75-.77-311.63-.95-8.62-.02-13.35-1.64-13.27-11.84.08-10.6,6.33-10.18,13.48-10.14,68.17.39,136.35.82,204.52,1.06,194.11.67,388.23,1.22,582.34,1.87,217.39.73,434.78,1.59,652.17,2.28,127.55.4,255.1.57,382.65.84,62.16.13,124.32.21,186.49.53,5.46.03,12.53-2.05,14.08,7.13,1.73,10.22-.85,13.81-11.87,13.79-79.41-.12-158.82-.33-238.23-.55-91.04-.26-182.08-.73-273.12-.8-164.85-.13-329.7-.04-494.56-.04,0-.74,0-1.48,0-2.21Z"/>
    </g>
    <rect class="st1" x="63.58" y="63.58" width="2176.87" height="2217.83"/>
  </g>

  </g>
  <text x="50%" y="2450" text-anchor="middle" font-family="Arial" font-size="150" fill="#006838">Cabinet de l'Epi d'Or</text>
</svg>