<?xml version="1.0" encoding="UTF-8"?>
<svg id="Calque_1" xmlns="http://www.w3.org/2000/svg" version="1.1" viewBox="0 0 2304 2345">
  <!-- Generator: Adobe Illustrator 30.0.0, SVG Export Plug-In . SVG Version: 2.1.1 Build 123)  -->
  <defs>
    <style>
      .st0 {
        fill: #fff;
      }

      .st1 {
        fill: #063;
      }
    </style>
  </defs>
  <rect class="st0" width="2304" height="2345"/>
  <g>
    <path class="st1" d="M1912.7,1601.3h-234.6c-12,0-23,1.3-34.6,6.7-11.7,5.5-26.4,6.1-39.8,6.3-59.3.9-118.5,1-177.8,1.2-49.4.2-98.8.1-148.2.2-75,.2-149.9.3-224.9.6-76.5.2-153,.6-229.5.9-63.7.2-127.5.5-191.2.7-7.6,0-15.4,1-22.6-.6-7-1.6-15-4.4-19.7-9.3-7.1-7.5-14.6-9.8-24.4-9.9-135.6-.4-271.1-1-406.7-1.6-2.8,0-5.7-.4-8.4-.1-8.6,1.1-11.1-3-11.1-11,0-8.5,4.5-9.8,11.5-9.8,44.1.1,88.2-.1,132.4.1,92.3.4,184.5.9,276.8,1.4,12.5.1,22.7-3.9,29.4-15.1,4.8-8.1,12.5-10.4,21.6-10.4,86.2-.1,172.4-.2,258.6-.5,43.2-.2,86.3-1.1,129.5-1,10.7,0,22.4-2.2,31.3,7.5,1.8,2,7.5,3,9.8,1.6,22.7-12.8,47.7-9.4,71.8-9.6,74.1-.8,148.3-.2,222.4-.3,61.2-.2,122.5-.9,183.7-.9,11.4,0,22.7,2.6,34.1,3.9,2.3.3,4.8.5,7.1-.1,33.1-8.6,66.9-3.1,100.3-3.9,13-.3,14.4,13.8,17.2,21.8,3.2,9,7.5,9.7,14.7,9.7,84.2.2,168.5.4,252.7.6,72.2.2,144.4.4,216.6.3,8.3,0,14.9-.2,14.6,11.5-.3,12.1-8,10.7-15.7,10.7h-246.7c-.2-.5-.2-1.1-.2-1.6Z"/>
    <path class="st1" d="M1929.3,1519.6c-76.6,0-153.2-.1-229.8.2-6.9,0-13.8,3.1-20.8,4.6-8.9,1.9-17.8,4.6-26.8,5.1-20,1.1-40.1,1.4-60.1,1-5.6-.1-11-4.9-16.8-6.2-5.5-1.2-13.5-3.2-16.8-.5-7.4,6-14.8,6.4-23.4,6.4-43.3.2-86.6,1-129.8,1.2-58.1.3-116.2,0-174.3.4-40.8.3-81.6,1.3-122.4,1.7-9,.1-19.1,1.3-22.3-11.1-.2-1-1.5-1.9-2.4-2.5-7-4.5-44-1.9-49.6,4.4-7.2,8-15.8,9.7-25.9,9.7-59-.2-117.9,0-176.9-.1-74.1-.1-148.1-.2-222.2-.8-6-.1-13.2-3.3-17.5-7.4-7.3-6.9-14.9-9.6-24.7-9.6-138-.3-276-.9-414-1.6-5.5,0-12.6,2.4-13.5-7.3-.8-8.9.3-13.8,11.6-13.7,134.8.7,269.6.7,404.4,1.8,14.7.1,24.6-5.3,32.7-15.5,5.8-7.3,12.3-10.6,21.5-10.6,57.3,0,114.7-.1,172-.4,84.9-.3,169.8-.7,254.8-1.3,12.6-.1,18,8.2,21.3,17.8,3.3,9.6,9.6,10.3,18.2,11.5,18.6,2.6,33.4-7.5,48-14.9,19.2-9.8,38.3-15.1,59.7-15.1,102.1,0,204.3-.5,306.4-.8,17.6-.1,35.3-.3,52.9-.7,10.7-.3,19.3,1.4,24.4,12.9,4.7,10.6,15.7,6.6,20.6,2.2,20.8-18.7,45.4-17,70.2-15.8,4.8.2,9.6.1,14.4.4,23.1,1.8,25.9,4.5,32.9,27.3.8,2.6,6.6,5,10.2,5.1,22.9.6,45.7.7,68.6.7,125.2.3,250.3.5,375.5,1,6.5,0,15.2-3,15.5,9.2.2,9.1-2.2,12.7-12.2,12.6-77.8-.4-155.6-.2-233.4-.2-.2-.4-.2-.8-.2-1.1Z"/>
    <path class="st1" d="M140.2,1261.6v-20.2c20.3,0,40.6-.1,60.8,0,49.7.2,99.4.6,149.2.8,68.2.3,136.4-.1,204.6,1,16.4.3,27.8-5.9,36.8-17.7,6-7.9,12.7-10.8,22.4-10.8,87,.1,174-.1,261-.5,95.4-.4,190.9-1.1,286.3-1.6,88.9-.4,177.7-.7,266.6-1.3,11.2-.1,18.2,2.5,20.8,14.7.8,3.7,8,8.8,12,8.7,26.3-1.1,53.1-1.1,78.8-6.2,39.9-7.8,78.7-7.5,117.5,3.8,1.5.4,3.3.8,4.4,1.9,13.4,13.6,30.6,11.6,47.3,11.6,150.4.5,300.9.9,451.3,1.5,5.5,0,13.6-3.6,15.1,6.8,1.6,11.4-.7,14.4-12.4,14.4-86.3-.1-172.5-.2-258.8-.4-70.2-.2-140.4-.6-210.6-.4-6,0-11.8,4.6-17.9,6.3-7.6,2-15.4,4.3-23.2,4.5-37.1.8-74.2,1.1-111.3,1.2-79.2.3-158.4.4-237.7.5-18.8,0-37.7.2-56.5-.9-7.8-.4-15.4-4.3-23.2-5.8-12.4-2.5-24.9-5.5-37.5-6.2-7.5-.4-16,1.5-22.9,4.9-21.2,10.5-44,8.3-66.1,8.4-125.4.6-250.8.5-376.2.7-35.1.1-70.2,1.2-105.2.3-8-.2-15.9-6.8-23.9-10.3-5.9-2.5-12-6.6-18.1-6.7-63.4-.8-126.8-.8-190.2-1.1-78.2-.4-156.5-.8-234.7-1.3-2.4.1-4.7-.3-8.5-.6Z"/>
    <path class="st1" d="M141.1,1411.3c34.5,0,68.5-.1,102.5,0,105.5.3,211,.6,316.5,1.1,7.2,0,12.2-1.6,17.4-7.7,11.1-13,24.5-20.9,43.6-20.9,121.4.2,242.7-.9,364.1-1.5,23.7-.1,47.3.1,71,.3,18.2.1,26.5,6.5,33.2,23.3,1.4,3.6,6.8,7.8,10.5,8,29.3.9,58.5.9,87.8,1,2.9,0,6.5-1.1,8.6-3,25.9-22.3,55.7-31.8,89.9-31.4,62.1.6,124.3-.3,186.4-.6,10.4,0,20.9-.9,31.2.5,5.9.8,11.2,5.7,17.1,7.9,4,1.5,9.3,3,12.9,1.6,22.5-8.6,43.5-9.2,63.4,7.1,2.9,2.4,12.3,1.8,14.8-.9,16-17.8,36.1-18.3,57.4-16,5.2.6,10.4.4,15.6.4,19.8.2,30.5,8.2,35,27.5,2.2,9.2,8.8,8.1,15,8.1,40.1.2,80.2.3,120.3.3,102.3.2,204.6.4,306.9.4,8.5,0,13.3,1.5,13.1,11.8-.2,10.6-6.2,10.1-13.4,10.1-147.2-.5-294.4-.9-441.6-1-6.8,0-13.5,3.7-20.4,4.9-10.5,1.9-21.2,3.6-31.8,4.4-11.6.8-23.3,1.5-34.8.3-7.9-.8-15.2-6.3-23.1-7.2-9.1-1.1-18.6-.1-27.7,1.4-7.2,1.1-14,6.2-21.1,6.2-64.9.7-129.8.7-194.7,1.1-56.1.3-112.2.7-168.3,1-7.2,0-14.4.4-17.5-9-.8-2.3-6.4-4.2-9.9-4.3-30.1-.3-60.2-.3-90.3-.1-3.5,0-8.3-.3-10.4,1.7-15.4,15-34.9,12.3-53.3,12.5-87.6.7-175.2.6-262.8.8-39.6.1-79.2.6-118.8.4-10.8,0-21.6-1.5-32.3-2.9-3.8-.5-8.9-1.8-10.7-4.5-7.6-11.6-19.1-10-30-10.1-135.2-.6-270.3-1-405.5-1.5-18.6-.1-18.6-.2-15.8-21.5Z"/>
    <path class="st1" d="M1891.1,1683.1c-89.5,0-178.9-.1-268.4.2-5.8,0-12.6.9-17.2,3.9-11.9,7.7-24.8,8.5-38,8.6-133.4.8-266.9,1.4-400.3,2.3-51.5.3-103.1,1.2-154.6,1.6-28.4.2-56.9.1-85.3-.5-3.9-.1-9.6-2.8-11.3-6-6-11.5-22.5-16.3-30.2-6.2-8.9,11.6-19.6,12.7-32.6,12.6-74.5-.2-149,.2-223.5.4-14,0-26.7-1.7-36.7-13.7-3.4-4-11.3-5.9-17.2-5.9-65-.5-130-.2-195-.5-76.2-.3-152.4-.9-228.7-1.3-7.1,0-13.3.4-13.3-10.3s6.5-10.9,14.1-10.9c91.5.4,182.9.9,274.4,1.2,47.3.2,94.7.2,142,.4,9.3,0,17.9-1.2,22.8-10.2,6.3-11.5,16.6-13.7,28.5-13.7,54.1,0,108.2-.3,162.3-.5,107.8-.3,215.6-.7,323.3-1.1,109-.4,218-.8,327-1.4,58-.3,116-.9,174.1-1.2,17.4-.1,21,2.2,23.2,18.6,1.4,10.2,6.3,12,15.3,12,108.7.1,217.5.4,326.2.7,64.2.2,128.4.5,192.5.5,7.9,0,10.6,3,10.7,10.5.1,8.7-3.1,11.9-12.1,11.8-63.8-.6-127.5-.7-191.3-.9-26.9-.1-53.7,0-80.6,0-.1-.3-.1-.7-.1-1Z"/>
    <path class="st1" d="M1577.1,1745.6h23.9c128.4.3,256.7.6,385.1.8,59,.1,117.9.1,176.9-.1,7.6,0,12.1,1.3,12.2,10.3.2,9.8-4.2,12.2-13,12.2-124.8-.6-249.5-1.1-374.3-1.5-75.4-.2-150.8-.2-226.3,0-6.2,0-12.9,1.2-18.5,3.7-21.5,9.7-44.3,6.5-66.5,7-72.4,1.5-144.8,2-217.3,2.5-45,.3-90.1-.5-135.1-.4-53.2.1-106.4,1.1-159.6,1.1-66.5,0-133-.6-199.4-.7-42-.1-84,.3-126,.5-13.3.1-25.1-2.3-35-12.5-3-3.1-9.3-4.3-14.1-4.3-146.4-.8-292.8-1.4-439.3-1.9-7.6,0-12-1.2-11.9-10.4.2-9.3,4.2-11.1,12.6-11,103.5.7,207,1.1,310.5,1.5,39.3.1,78.6.5,117.9-.7,7.3-.2,16.8-5.5,21-11.5,8.5-12.1,19.3-13.9,32.3-13.9,57,.2,113.9.2,170.9.1,80-.2,160-.7,239.9-1.1,76.9-.3,153.8-.6,230.7-.9,93.8-.4,187.5-.8,281.3-1.1,17.3-.1,19,1.4,21,18.5.4,3.6.1,7.2.1,13.8Z"/>
    <path class="st1" d="M141.1,1346.7c-4.3-19.2-3.9-19.9,14.3-19.9,130,.2,259.9,0,389.9,1.1,17.1.1,29.3-5.7,42-15.3,7.5-5.6,17.6-10.7,26.6-10.8,79.7-1,159.4-.7,239.2-1,63.7-.3,127.5-.8,191.2-1.2,13.6-.1,27.2.6,40.8.2,17-.4,25.4,10.5,33.4,23,2.1,3.3,6.9,6.8,10.4,6.8,43.3.5,86.6.3,130,.6,8,0,10.8-3,12-11.1,2.6-18.3,5.5-20,24.2-20.2,55.3-.6,110.6-1.5,165.9-1.9,70.8-.4,141.7-.2,212.5-.7,20.5-.1,33.7,10.3,42.5,27.1,4.2,8,10.3,7.9,17.1,7.9,49.7.2,99.5.2,149.2.4,93.5.2,186.9.5,280.4.5,8.7,0,12.4,2.5,12.4,11.5s-5.4,10-12.5,10c-132.8-.4-265.6-.7-398.4-.9-15.2,0-30.6-1.1-45.7.4-14,1.3-27.7,6.3-41.7,8-12.6,1.5-25.5.9-38.3.9-3.1,0-6.5-.8-9.3-2.1-26.8-12.6-53.4-8.1-80.9-1.8-16.8,3.9-34.7,4.3-52.1,4.5-61.3.8-122.6.8-184,1-9.2,0-18.4-.1-27.6-.7-3.4-.2-8.7-1-9.8-3.1-4.7-9.3-12.8-8.1-20.7-8.1-48.9-.1-97.9-.3-146.8-.1-4.9,0-11.2,1-14.3,4.1-8,8.1-17.7,8.8-27.7,8.9-87.3.3-174.6.5-261.9.7-60.9.1-121.8.2-182.6.1-10.5,0-20-2-28.4-10.2-4.4-4.3-13-5.9-19.7-6-67-.6-134-.6-201-.9-75.4-.3-150.8-.7-226.3-1-1.4-.2-2.9-.5-4.3-.7Z"/>
    <path class="st1" d="M1514,1828.9c4.3.5,8.4,1.3,12.6,1.3,115.5.3,231.1.3,346.6.7,96.3.3,192.5.8,288.8,1.2,7.3,0,13.3-.1,13,10.5-.3,8.4-2.7,11.2-11.2,11-29.7-.5-59.4-.5-89.1-.6-195-.4-389.9-.9-584.9-.8-10.3,0-20.6,6.2-30.9,6.6-46.8,1.7-93.6,2.6-140.5,3.2-40.5.5-81,0-121.5.2-113.3.5-226.6,1.1-339.9,1.6-66.8.3-133.7.4-200.5.7-10,0-18.5-1.7-25.7-10.1-3.2-3.7-10.7-5.1-16.2-5.1-86.6-.5-173.3-.5-260-.9-67.8-.3-135.6-1-203.4-1.5-6,0-12.3,1.3-12.2-8.4.1-9.1,3.1-12.8,12.7-12.7,69.8.6,139.6.8,209.4,1,78.6.3,157.2.2,235.9,1.1,11.8.1,15.1-8.6,19.3-15.1,6.6-10.1,15-13.6,26.1-13.6,58.9-.1,117.7-.2,176.6-.6,64.3-.4,128.6-1.3,192.9-1.5,111.9-.4,223.7-.4,335.6-.6,46.8-.1,93.7.9,140.5-1,24.4-1.1,30.1,10.3,26,33.4Z"/>
    <path class="st1" d="M141.1,1177.1c-2.2-20.5-2.2-20.7,16.3-20.7,138.4.2,276.8.1,415.2,1,11.9.1,18.2-5.8,23.6-13,8.2-10.8,18.6-12.6,30.7-12.6,88.2-.1,176.4-.4,264.5-.6,50.8-.1,101.6.2,152.4,0,67.7-.2,135.5-.8,203.2-1,66.8-.2,133.7.2,200.5-.5,17.1-.2,28.8,8,37,20.4,6.1,9.1,13.1,10.6,22.2,10.6,62.6.1,125.2.2,187.7.3,153.6.2,307.3.4,460.9.7,3.2,0,6.4.4,9.6.1,9.1-.7,10.2,4.6,10.3,12.1.1,8.4-3.9,9.9-11.2,9.9-107.5-.5-215-1-322.5-1.2-115.5-.2-231.1-.1-346.6-.1-4,0-8.9-.8-11.8,1-26.5,16.9-56.1,10.5-84.5,10.9-64.5,1.1-129.1.4-193.6.6-70.4.3-140.7.9-211,1.2-81.4.4-162.7.7-244.1.9-43.2.1-86.5.1-129.7-.4-9.9-.1-19.5-1.2-26.1-11.6-2.5-3.9-11.2-5.5-17.1-5.5-55.3-.5-110.7-.4-166.1-.7-86.2-.3-172.5-.8-258.7-1.2-3.5.1-7-.3-11.1-.6Z"/>
    <path class="st1" d="M1817.9,1097.7h-343c-7.1,0-12.4.7-17,8.1-2.5,4-10.9,6.1-16.7,6.2-62.5.6-125,.4-187.5.8-55.3.3-110.6,1.4-166,1.6-95.7.2-191.4,0-287.1-.1-56.5-.1-113-.5-169.5-.8-11.2-.1-22.4,1.1-28-12.9-1.3-3.3-9.6-5.3-14.6-5.3-71.8-.7-143.6-1.1-215.4-1.4-73.8-.3-147.6-.8-221.4-.6-10.8,0-11.3-5.4-11.8-13.2-.5-9.3,6-7.7,11.4-7.7,113.9.3,227.9.6,341.8,1,28.1.1,56.2-.1,84.2.4,16,.3,28.3-6.2,39.8-16.5,4.5-4.1,11.9-6.9,18-7,58.9-.5,117.9,0,176.8-.2,51.3-.2,102.6-1.1,153.9-1.3,57.7-.2,115.5.3,173.2.1,78.1-.3,156.2-1,234.2-1.4,14.4-.1,28.9.2,43.3.4,16.9.2,26.4,14.1,39.3,21.6,5.2,3,11,6.8,16.6,6.8,162.9.6,325.8.8,488.6,1,67,.1,134,.1,201,.2,7.2,0,13.5,0,13.5,10.4s-4.8,11.7-13.4,11.7c-114.7-.2-229.5-.1-344.2-.1,0-.8,0-1.3,0-1.8Z"/>
    <path class="st1" d="M1791.7,1933.5c-122,0-243.9-.1-365.9.2-7.5,0-15,4.1-22.6,5.4-9.7,1.7-19.6,3.7-29.4,3.8-88.6.4-177.2.3-265.7.7-48.8.2-97.5,1.6-146.3,1.7-80.2.2-160.4-.3-240.6-.5-20.8,0-41.6.1-62.4-.2-3.4,0-8.2-.7-9.9-3-8.5-11.5-20.4-10.8-32.6-10.9-141.6-.6-283.2-1.4-424.8-2-14-.1-28.1,0-42.1.3-6.4.1-10.6-.7-10.4-9,.3-8.2,1.9-12.3,11.5-12.2,56.6.5,113.1.4,169.7.5,67.8.1,135.6.2,203.4.4,30.1.1,60.2,0,90.3.8,12.1.3,20.3-4.1,25.1-14.6,4.4-9.6,11.7-11.9,21.4-11.9,53.2.2,106.4.3,159.7,0,93.3-.6,186.6-1.7,279.9-2.2,86.6-.5,173.2-.5,259.7-.7,22.5-.1,44.9.5,67.4-.3,16.5-.6,19.4,8.4,15,20.6-4.6,12.9,2.6,11.8,10,11.8,107.5.1,215.1.1,322.6.3,83.9.2,167.7.7,251.6,1,45.3.1,90.6.2,136-.1,7.8-.1,13,0,12.9,10.3-.1,9.6-4.3,11-12.6,11-123.6-.2-247.1-.1-370.7-.1-.2-.4-.2-.7-.2-1.1Z"/>
    <path class="st1" d="M1795.8,1013.9h-363.4c-7.4,0-13.6,0-17.4,8.9-1.5,3.6-10.2,5.6-15.7,5.6-48.5.5-97.1.1-145.6.4-114.9.5-229.8,1.1-344.7,1.8-52.4.3-104.8,1.2-157.2,1.4-34.8.1-69.7-.3-104.5-1-10.3-.2-20.3-.7-26.7-12.2-2.6-4.6-11.4-7.8-17.4-7.9-140.4-1-280.8-1.4-421.1-2-10.4,0-20.9-.6-31.3,0-8.1.4-10.5-2.8-10.5-10.5.1-7.5,2.3-10.7,10.4-10.7,48.9.4,97.9.3,146.8.5,103.5.4,207,1.2,310.4.9,8.6,0,19.7-4.2,25.3-10.4,9.1-10.1,18.8-13.5,31.5-13.4,48.5.3,97.1.4,145.6.2,57.7-.2,115.4-1,173-.9,69.8,0,139.5.5,209.3,1.2,8.1.1,16.1,3.8,24.3,5.4,12,2.4,24.1,4.9,36.2,6.4,4,.5,9.8-.7,12.3-3.4,9.6-10.4,21.5-8.9,33.5-8.8,19.7.1,39.4-1.3,58.9.5,11.3,1.1,23,5.9,33,11.6,13,7.4,25.1,14.4,40.9,14.4,121.9-.1,243.9.2,365.8.4,119.9.2,239.9.4,359.8.6,2.4,0,4.8.4,7.2.3,6.9-.5,11.4.6,11.1,9.5-.3,8.4-2.6,12.7-11.7,12.5-14.8-.3-29.7,0-44.5,0h-323.7c.1-.3.1-.8.1-1.3Z"/>
    <path class="st1" d="M1755.9,2018c-135.2,0-270.4,0-405.6.2-5.8,0-12.1,1.3-17.2,3.9-17.2,9-35.5,11.5-54.6,11.5-69.8-.1-139.5.3-209.3.3-40.9,0-81.8-.8-122.7-.8-84.5.1-169,.5-253.5.9-14.4.1-27.6-1.3-38-13.6-3.1-3.7-10.9-4.7-16.5-4.8-57.4-.6-114.7-.7-172.1-.9-105.1-.5-210.2-.9-315.3-1.4-6.7,0-12.5.4-12.5-9.6,0-10.5,5.1-11.3,13.6-11.2,155.7.6,311.3.9,467,1.7,13,.1,23.1-1.6,30-14.3,6.6-12,18.9-13.3,31.4-13.1,36.8.3,73.6.4,110.4.2,105.8-.6,211.6-1.5,317.4-2.1,63-.3,125.9-.3,188.9-.4,18.8,0,37.7-.1,56.5.1,20,.2,21.3.5,20.8,19.8-.3,10.9,4.1,11.7,12.3,11.8,53.8.2,107.5.6,161.3.9,85,.4,170.1.7,255.1.9,119.1.3,238.3.3,357.4.7,5.2,0,12.7-3.2,13.7,6.8.9,9.1-.9,14.3-11.9,14.2-39.3-.5-78.6-.2-117.9-.2h-288.8c.1-.6.1-1,.1-1.5Z"/>
    <path class="st1" d="M1763.8,929.1h-394.7c-8.3,0-17.1-1.7-18.6,11-.3,2.4-6.9,5.5-10.7,5.6-21.2.6-42.5,1.2-63.6-.2-7.5-.5-14.8-6.7-22-10.5-3.1-1.7-5.8-5.6-8.8-5.7-17.6-.7-35.3-.9-52.9-.4-2.8.1-7.1,4.4-7.7,7.5-2,8.8-7.9,10.4-15.2,10.4-20.5.1-41,1.3-61.3-.4-8.7-.7-18-6-25.2-11.5-12.2-9.2-15.8-8.7-22.6,4.7-1.8,3.6-8.7,6.5-13.4,6.6-31.6.9-63.3,1.1-94.9,1.2-90.5.3-181,.4-271.4.5-6.8,0-13.7-.1-20.3-1.6-3.8-.9-9.2-3.9-10.1-7-3.5-11.5-11.6-12.7-21.6-12.8-91.1-.3-182.1-.7-273.1-1.1-67.4-.3-134.8-.6-202.2-.8-7.3,0-13.2.2-13-10.4.2-9.9,4.8-10.9,12.7-10.9,143.6.7,287.2,1.2,430.8,1.7,17.6.1,35.4.7,52.9-.9,8-.7,17.2-4.7,22.8-10.2,8.8-8.6,18.1-12.2,30-12.2,50.5.2,101.1.2,151.6,0,45.6-.2,91.2-.7,136.8-1.1,14.4-.1,27.6,3.2,40,10.8,6.4,3.9,13.5,7.1,20.6,9.5,11.7,3.9,15.4.7,20.4-10.9,1.8-4.2,8.3-8.7,13-9,15.1-1.1,30.5-1.5,45.6,0,9.6.9,20.8,3.3,27.9,9.1,25.4,20.9,54.7,17,83.6,16,2.6-.1,6.7-5.3,7.3-8.7,2.2-11.6,8.7-15.9,20.1-16.2,23.9-.7,46.4.9,68,14.3,12.5,7.8,27.7,12.2,44.3,12.2,251.1-.1,502.2.6,753.3,1.1,14,0,28.1.3,42.1,0,7.8-.2,11.8,2,11.8,10.8.1,8.6-3.4,11.1-11.4,11.1-42.9-.2-85.8-.2-128.7-.2h-272c-.2-.6-.2-1-.2-1.4Z"/>
    <path class="st1" d="M1708.2,2099.2c-150.4,0-300.9,0-451.3.1-4.3,0-9.2,0-13,1.9-28.5,14.2-59.1,12.9-89.5,12.9-99.8.2-199.7,0-299.5.1-31.6,0-63.2,1.4-94.8.4-11.2-.4-22.1-6.2-33.3-9-11.9-3-23.9-7.7-35.9-7.8-125.2-1.1-250.3-1.5-375.5-2-55-.2-109.9-.5-164.9-.4-9.3,0-13.3-2.8-12.5-12.4.7-9,6.7-8.6,12.9-8.5,44.9.2,89.8.5,134.8.7,92.7.3,185.3.5,278,.7,36.1.1,72.2.1,108.3.5,9.1.1,14.7-2,14.6-12.4,0-10.8,8.1-11.6,16-11.6,26.1-.2,52.1-.2,78.2-.2,84.1-.2,168.3-.2,252.4-.6,81.3-.4,162.6-1.1,243.8-1.7,14.7-.1,15.5.4,14.2,14.9-.9,9.8,2.7,13.5,12.9,13.5,67-.2,134,.2,201,.3,171.7.4,343.4.7,515.2,1.1,47.7.1,95.5.7,143.2.7,8.6,0,11.1,3.3,11.1,11.4-.1,8.7-4.6,9.4-11.6,9.4-76.2-.3-152.4-.5-228.6-.5-75.4-.1-150.8,0-226.3,0,.1-.6.1-1.1.1-1.5Z"/>
    <path class="st1" d="M1724.5,843.7h-428.4c-10,0-21-2.8-25,11.8-.7,2.6-8.9,3.4-13.7,4.5-19.4,4.5-37.3,3.2-52-12.7-2.5-2.7-8-3.6-12.1-3.7-23.3-.4-46.5-.2-69.8-.3-7.3-.1-11.7,1.7-13.6,10.1-.8,3.7-7.2,8.4-11.3,8.6-17.2.9-34.5.8-51.7.1-6.1-.3-12.1-3.5-18-5.6-11.3-4-22.3-9.3-33.9-11.7-4.7-1-14.3,3-15.4,6.7-3.8,12.5-13.4,11.8-22.1,11.8-75.1.1-150.2-.2-225.3-.5-12.4,0-24.9.2-37.2-.7-8.2-.6-16.4-1.4-19.4-12.4-1-3.6-9.2-7.4-14.2-7.4-64.2-.8-128.3-1-192.5-1.3-105.5-.4-211-.8-316.5-1.1-7.6,0-11.7-1.3-11.8-10.4-.1-9.8,4.4-11.2,12.4-11.1,80.6.4,161.3.6,241.9.8,87.5.2,174.9.3,262.4.8,14.1.1,26.5-1.8,37.5-12.1,15.5-14.5,34.6-12,52.1-5.2,14.7,5.7,27.7,4.8,41.9-.2,8.5-3,17.8-5.3,26.8-5.3,80.2-.3,160.4-.4,240.6.6,9.4.1,20.1,5.1,27.8,11.1,10.4,8,20.4,13.3,33.7,13,18.8-.4,37.7-.2,56.6,0,7.2.1,12.3-.8,12.4-10.2.1-9.6,6.1-15.1,15.8-13.8,10.1,1.4,21.1,2.5,29.8,7.2,22.1,11.9,44.9,17.3,69.9,17.3,100.7-.1,201.4.8,302.1,1,167.3.3,334.6.3,501.9.5,18.9,0,37.7.3,56.6.2,7.9,0,14.1.5,13.6,11.4-.4,10.1-6.2,10.4-13.6,10.4-76.6-.2-153.2-.4-229.9-.5-69.4-.1-138.8,0-208.2,0-.2-.6-.2-1.2-.2-1.7Z"/>
    <path class="st1" d="M142.2,648.8h29.4c193.4.6,386.8,1.3,580.1,1.9,6,0,12.4,1.7,17.9.2,6.3-1.8,14.1-5,17.2-10,5.9-9.6,13.2-12.9,23.7-12.8,65.4.3,130.8.4,196.2.6,28.1.1,56.1.5,84.2.2,11.5-.1,21.1,2.9,29.2,11.2,8.7,8.9,19.4,12.9,32.3,12.9,111.9-.1,223.9.3,335.8.4,117.1.2,234.3.2,351.4.4,106.7.3,213.4.7,320.1,1.3,5.8,0,13.5-2.6,15.6,6.9,2.3,10.7-1.3,14.9-13.5,14.9-92.3-.1-184.6-.3-276.8-.5-124.3-.2-248.7-.3-373-.6-111.5-.3-223-.9-334.6-1.4-8,0-16.2-.5-24,.7-3.8.6-9.3,4-10.2,7.3-2.4,7.8-7,10-14.2,10-34.9.3-69.8.7-104.7.9-32.8.2-65.6.3-98.3.3-31.6.1-63.2.7-94.8-.4-7.7-.3-16.6-4.4-22.3-9.6-7.8-7.2-15.8-9.9-25.9-9.9-102.7-.3-205.4-.8-308.1-1.3-95.9-.5-191.8-1-287.6-1.5-9.6,0-19.2.2-28.9.2-19.5,0-20.2-.9-16.2-22.3Z"/>
    <path class="st1" d="M1689.9,759.5c-108.7,0-217.4.1-326.1,0-47.7-.1-95.5-.5-143.2-.8-8.6-.1-16.1-.4-19.9,10.7-1.3,3.8-11.4,6.7-17.3,6.3-7.3-.4-15.4-3-21.3-7.3-19.2-14.1-40.8-9.1-61.7-8.9-3.6,0-7.8,2.5-10.8,4.9-13.8,11.2-29.3,14.4-46.9,14.3-67.6-.6-135.2-.2-202.8,0-12.8,0-24.3-.3-31.4-14.3-2-4-10.9-6.3-16.7-6.4-121.2-.8-242.3-1.1-363.5-1.7-91.5-.4-182.9-1-274.4-1.7-5.9,0-13.2,2.3-13.6-8.4-.4-9.7,2.1-13.2,12.6-13.1,67.8.8,135.6,1,203.4,1.2,142.4.5,284.9.8,427.3,1.4,16.2.1,29.6-3.1,39.9-17.2,3-4.2,11.1-6.5,16.9-6.5,47.7-.3,95.4.1,143.1.3,28.8.1,57.6,1.3,86.4-.1,15.1-.7,23.3,7.4,33,15.9,4.6,4.1,11.2,6.6,17.3,8.2,6.7,1.8,10.7-1.3,9.6-9.2-1.3-9.2,3.3-14,12.4-13.1,7.8.8,17.3.6,23,4.9,23.8,18,50.6,18.7,78.6,18.7,114.3-.2,228.7.4,343,.6,152.8.3,305.7.4,458.5.6,39.3.1,78.6.5,117.9.5,8,0,12.4,1.3,12.6,11.1.2,10.5-5.3,10.6-12.8,10.6-111.5-.3-223.1-.6-334.6-.8-46.1-.1-92.3,0-138.4,0-.1-.2-.1-.5-.1-.7Z"/>
    <path class="st1" d="M142.2,564.3c16.3,0,33.1-.1,49.8,0,188.9.7,377.8,1.3,566.8,2.1,11.8,0,21.4-3.2,30-12.2,4.5-4.7,12.2-8.5,18.6-8.7,27.6-.8,55.3-.5,83,.2,4.3.1,9.6,3.5,12.6,7,10.8,12.5,23,13.1,35.4,2.7,5.9-5,14.2-9.9,21.6-10.1,34.4-.9,68.8-.4,103.2.3,5.1.1,11.9,2.3,14.8,6,10.8,13.3,24.6,16.2,40.6,16.2,76.2-.1,152.4.3,228.6.4,271.1.4,542.3.8,813.4,1.3,6.8,0,14.6-2.2,15.3,9.6.7,12.5-5.7,13.5-15.4,13.4-126.7-.6-253.5-1.1-380.2-1.3-143.2-.3-286.4-.3-429.6-.5-75.8-.1-151.6-.5-227.4-.8-12.2-.1-24.1-1.3-29.3,14.4-1.1,3.3-10.3,5.4-15.7,5.5-41.3.7-82.6.7-123.9,1-38.8.2-77.6.6-116.4.5-11.2,0-22.3-1.2-33.5-2-9.1-.7-16-4.3-22.6-11.6-4.6-5.1-13.7-8.6-20.9-8.7-128.4-1-256.7-1.2-385.1-1.8-73-.3-146-.7-219-1.1-17.2,0-18.2-1.3-14.7-21.8Z"/>
    <path class="st1" d="M1650.2,504.4h-435.6c-21.3,0-42.7-1.6-63.7.4-19.7,1.8-39,7.5-58.5,11.4-15.2,3-30.3,7.8-45.6,8.6-27.2,1.5-54.5,1.1-81.8.4-7.8-.2-15.4-4.9-23.2-6.7-4.1-1-8.8-1.2-12.9-.4-9.2,1.8-18.2,6.2-27.4,6.5-22.8.9-45.7.2-68.6.2-10.5,0-19.4-1.4-23.9-13.6-1.4-3.9-9.4-7.6-14.4-7.6-57.3-.8-114.7-.9-172.1-1.2-96.3-.5-192.5-1-288.8-1.4-60.2-.3-120.3-.5-180.5-.4-8.6,0-13.2-1.3-12.9-11.8s6.6-9.2,12.9-9.2c124,.2,247.9.3,371.9.6,94.7.3,189.3,1,284,1,6.2,0,14.3-2.1,18.3-6.2,10.5-10.9,23.2-14.1,37.1-14.1,60.9,0,121.9.5,182.8.8,27,.1,54,.2,80.9.1,8.3,0,14.7,1.3,17.6,10.6,2.6,8.6,9.6,10.3,18.1,10.3,120.7.2,241.5.7,362.2,1,115.5.3,231.1.6,346.6.8,80.6.1,161.2,0,241.9,0,15.2,0,30.4-.1,45.6.2,7.1.2,15.6-2.1,15.8,10.6.1,12.3-7.8,11.1-15.3,11.2-41.3.1-82.6.1-123.9.1h-386.3c-.3-.6-.3-1.4-.3-2.2Z"/>
    <path class="st1" d="M1654.4,419.4c-168.1,0-336.2.1-504.3-.1-10.5,0-18.3.8-17.8,14.4.1,2.3-5.5,6.7-8.6,6.8-21.2.9-43.1,4.4-63.4.1-20.7-4.4-39.5,3.6-59.3,1.8-19.9-1.8-40-1.1-60-1.2-24.8-.1-49.7.6-74.4-.2-4.2-.1-10-4.8-12-8.9-4.8-9.8-10.6-13.9-22.2-13.9-163.3-.3-326.6-1-489.9-1.7-63-.3-126-.8-189-1.1-7.3,0-13.2,0-13.4-10.4-.2-10.6,5.8-10.4,13.1-10.3,120.8.4,241.5.6,362.3.9,102.7.2,205.4.5,308.1.8,8.8,0,17.7.1,26.5.4,10.2.4,17.8-4,26-10,7.6-5.5,18.1-9.4,27.4-9.5,51.2-.5,102.4.5,153.6.9,15.2.1,30.4.7,45.6.3,8.3-.2,14,2.8,17.4,10,3.3,7.3,8.9,9.1,16.5,9.1,85.5,0,170.9.3,256.4.6,65.8.2,131.6.8,197.4.9,162.1.4,324.2.6,486.3.8,28.9,0,57.8.2,86.7.2,6.9,0,12.5,0,12.5,9.8s-3.8,11.6-12.2,11.6c-56.2-.3-112.3-.3-168.5-.4h-340.6c-.2-.5-.2-1.1-.2-1.7Z"/>
    <path class="st1" d="M1104.6,2139.2c-3.7,2.1-7.2,4.8-11.1,6.2-5.7,2-11.9,2.3-17.4,4.6-3.2,1.3-5.3,5-7.9,7.7,3.3,1.6,6.5,4.5,9.8,4.6,34.1.5,68.2.5,102.3.6,217.4.3,434.8.4,652.2.8,109.5.2,219,.8,328.5,1.2,7.3,0,13.8-.5,13.4,10.1-.3,7.9-2.7,11.5-11.3,11.4-44.9-.5-89.9-.4-134.8-.5-152-.4-304.1-.8-456.1-1.1-118.3-.2-236.7-.2-355-.6-212.5-.6-425.1-1.5-637.6-2.1-128-.4-255.9-.7-383.9-1.1-15.6,0-31.3-.8-46.9-.7-6.5,0-10.9-.6-10.5-8.8.3-7.4,1.8-12.1,10.8-12,32.1.4,64.2.2,96.3.3,131.6.3,263.1.5,394.7.9,47.3.1,94.7.7,142,.9,3.6,0,7.1-2.1,10.7-3.2-2-3.1-4-6.1-5.9-9.2-1.5-2.5-2.9-5.1-4.4-7.7,3-1.6,5.9-4.5,8.9-4.7,16.8-.9,33.6-1.3,50.4-1.5,49.2-.6,98.4-1.1,147.7-1.4,34.4-.2,68.7,0,103.1.2,3.7,0,7.4,1,11.1,1.6.3,1.1.6,2.3.9,3.5Z"/>
    <path class="st1" d="M1640.9,342.3h-500.6c-8,0-16,.2-24.1.2-6.4,0-11.7.7-13.3,8.8-.5,2.4-5.8,5.5-9,5.5-61.8.3-123.5.3-185.3-.2-3.9,0-7.7-4.4-11.7-6.7-5.1-2.9-10.3-8-15.5-8.1-169.3-1-338.6-1.6-507.9-2.2-73.4-.3-146.8-.6-220.2-.8-7.1,0-13.3.6-13.5-10.1-.2-10.8,5.6-11.4,13.6-11.3,151.6.6,303.3,1,454.9,1.5,94.2.3,188.5.4,282.7.8,8.5,0,14.5-2.1,20.5-9.4,9-11,21-17.2,36.7-16.8,37.3.9,74.6.5,111.9.2,10.4-.1,18.3,2.6,24,12.3,5.9,10.2,15,14.5,27.9,14.5,138.4-.1,276.8.6,415.2,1,163.3.4,326.5.8,489.8,1.2,48.5.1,97.1.3,145.6.3,7.5,0,13,.3,13,10.6s-5.5,11.4-13.8,11.3c-160.9-.6-321.7-1-482.6-1.5h-38.5c.2-.3.2-.7.2-1.1Z"/>
    <path class="st1" d="M1617.3,257.4h-482.6c-20.9,0-41.7.1-62.6.2-6.7,0-12.7.2-14.2,9.3-.4,2.6-6.1,6-9.5,6.1-29.2.8-58.5,1.2-87.8.8-4.1-.1-10.6-4.2-11.7-7.7-2.5-8.5-7.8-9-14.6-9-157.3-.5-314.5-1-471.8-1.6-103.1-.4-206.2-1.1-309.3-1.6-7.3,0-13.2-.1-13.2-10.5s5.2-10.7,12.9-10.7c147.2.6,294.4,1,441.6,1.4,92.3.3,184.5.5,276.8.8,24.9.1,49.7.6,74.6,0,5.8-.1,11.7-3.5,17.3-6,11.9-5.1,23.3-11.8,35.5-15.5,11.1-3.4,20.9,2,29.4,9.8,8.6,8,18.2,12.2,31.1,12.3,178.1.1,356.3.9,534.4,1.5,120.8.4,241.5.8,362.3,1.1,69,.2,138,.4,207,.1,10.4,0,13.4,4.3,12.5,13.7-1,11.2-9.7,7.8-15.5,7.8-85.1,0-170.1-.4-255.2-.5-95.9-.1-191.8,0-287.6,0,.2-.6.2-1.2.2-1.8Z"/>
    <path class="st1" d="M1158.3,171.6c-93,0-186.1.1-279.1,0-138-.2-276-.6-413.9-.9-103.9-.3-207.8-.8-311.6-1-8.6,0-13.3-1.6-13.3-11.8.1-10.6,6.3-10.2,13.5-10.1,68.2.4,136.3.8,204.5,1.1,194.1.7,388.2,1.2,582.3,1.9,217.4.7,434.8,1.6,652.2,2.3,127.5.4,255.1.6,382.6.8,62.2.1,124.3.2,186.5.5,5.5,0,12.5-2,14.1,7.1,1.7,10.2-.9,13.8-11.9,13.8-79.4-.1-158.8-.3-238.2-.6-91-.3-182.1-.7-273.1-.8-164.9-.1-329.7,0-494.6,0,0-.8,0-1.6,0-2.3Z"/>
  </g>
</svg>