<svg version="1.0" xmlns="http://www.w3.org/2000/svg" width="3525.000000pt" height="1492.000000pt" viewBox="0 0 3525.000000 1492.000000" preserveAspectRatio="xMidYMid meet">

<g transform="translate(0.000000,1492.000000) scale(0.100000,-0.100000)" fill="#056839" stroke="none">
<path d="M868 14020 c-28 -17 -24 -85 5 -104 19 -13 543 -16 4012 -25 2195 -6 4928 -14 6076 -17 1591 -5 2090 -4 2107 5 16 9 22 21 22 46 0 70 78 65 -1038 65 -554 0 -2186 5 -3627 10 -1441 5 -3414 11 -4385 15 -971 3 -2078 7 -2460 10 -489 4 -700 2 -712 -5z" fill="#056839"/>
<path d="M5960 13616 c-30 -13 -82 -37 -115 -53 -135 -68 101 -64 -2556 -53 -1460 5 -2409 5 -2420 0 -43 -23 -30 -103 19 -113 16 -3 1086 -9 2378 -12 1292 -3 2364 -8 2382 -11 24 -4 39 -15 57 -44 38 -61 59 -64 358 -55 256 7 297 13 297 42 0 7 10 23 21 34 l21 21 3337 -3 3336 -4 3 46 c2 31 -2 50 -11 58 -11 9 -750 14 -3138 21 -3960 13 -3624 9 -3676 38 -23 12 -58 36 -77 52 -40 36 -95 60 -133 60 -15 -1 -53 -11 -83 -24z" fill="#056839"/>
<path d="M5591 13130 c-24 -11 -70 -44 -101 -74 -34 -31 -70 -55 -87 -58 -15 -2 -1036 -1 -2268 3 -1232 3 -2250 2 -2262 -2 -44 -16 -41 -93 4 -110 14 -5 488 -10 1191 -10 642 -1 1637 -4 2212 -8 l1045 -6 65 -45 65 -44 573 -1 574 0 18 25 c11 14 27 34 36 44 17 19 75 19 3206 12 2438 -5 3193 -4 3204 5 18 15 18 83 0 99 -12 9 -752 14 -3223 21 -3192 10 -3208 10 -3251 31 -26 12 -54 37 -73 65 -51 74 -47 73 -491 73 -370 0 -396 -2 -437 -20z" fill="#056839"/>
<path d="M22910 13000 c-380 -40 -683 -246 -845 -575 -65 -132 -100 -248 -120 -402 -70 -532 97 -980 457 -1224 246 -167 616 -220 951 -135 301 77 552 294 678 586 82 190 104 312 104 580 0 236 -12 323 -64 475 -108 310 -342 549 -631 643 -153 50 -357 70 -530 52z m322 -349 c300 -77 478 -330 507 -721 9 -107 1 -287 -14 -370 -33 -173 -100 -306 -210 -415 -114 -114 -230 -167 -405 -184 -372 -38 -662 185 -755 581 -26 109 -31 358 -11 477 55 314 236 544 491 624 70 22 86 24 211 26 80 1 131 -4 186 -18z" fill="#056839"/>
<path d="M26920 13000 c-492 -52 -844 -377 -950 -878 -27 -124 -38 -400 -21 -525 27 -199 93 -382 191 -528 56 -82 187 -213 269 -269 251 -169 617 -221 953 -136 335 85 608 346 718 686 65 201 88 501 56 719 -72 486 -374 822 -823 915 -92 20 -285 27 -393 16z m324 -350 c245 -62 415 -254 480 -540 39 -168 37 -435 -4 -607 -63 -269 -242 -460 -487 -524 -101 -26 -271 -28 -363 -4 -273 70 -458 295 -516 628 -22 126 -14 377 15 495 73 291 271 502 526 561 76 17 265 13 349 -9z" fill="#056839"/>
<path d="M29506 12999 c-510 -54 -913 -393 -1035 -871 -73 -286 -46 -641 69 -886 150 -320 433 -533 794 -599 133 -24 386 -21 541 6 150 27 293 70 412 126 l93 44 0 545 0 546 -435 0 -435 0 0 -160 0 -160 245 0 245 0 0 -274 0 -273 -58 -26 c-86 -39 -173 -57 -302 -64 -405 -20 -680 181 -781 572 -20 79 -23 113 -23 275 0 159 3 196 22 264 63 226 207 413 402 519 255 140 677 125 968 -34 l72 -40 0 195 0 195 -93 30 c-207 66 -479 93 -701 70z" fill="#056839"/>
<path d="M14470 11815 l0 -1155 190 0 190 0 0 471 0 471 133 -4 c117 -3 139 -7 190 -30 31 -15 82 -50 112 -79 66 -63 114 -136 346 -526 l180 -303 219 0 c121 0 220 3 220 6 0 9 -392 623 -468 734 -72 105 -203 242 -271 285 l-44 27 86 32 c215 81 360 236 412 441 19 76 19 241 0 323 -47 199 -215 362 -435 421 -128 35 -231 41 -652 41 l-408 0 0 -1155z m904 816 c82 -33 156 -107 186 -186 31 -85 25 -235 -13 -315 -40 -86 -88 -135 -174 -177 l-77 -38 -223 -3 -223 -3 0 376 0 377 233 -4 c214 -4 237 -6 291 -27z" fill="#056839"/>
<path d="M17136 12962 c-2 -4 -193 -511 -424 -1127 -231 -616 -425 -1132 -431 -1147 l-11 -28 209 0 208 0 100 293 100 292 456 3 455 2 16 -42 c9 -24 56 -155 104 -293 l88 -250 208 -3 c195 -2 208 -1 204 15 -3 10 -195 530 -428 1156 l-423 1137 -213 0 c-117 0 -215 -3 -218 -8z m402 -942 l158 -455 -350 -3 c-192 -1 -351 -1 -352 1 -2 2 67 208 153 458 85 249 161 477 168 504 7 28 16 64 20 80 7 27 10 21 26 -50 10 -44 90 -285 177 -535z" fill="#056839"/>
<path d="M18750 11814 l0 -1156 423 5 c369 4 436 8 532 25 275 52 468 148 652 325 208 201 309 434 329 758 14 239 -29 471 -122 657 -134 268 -378 435 -731 502 -175 32 -307 40 -705 40 l-378 0 0 -1156z m966 808 c329 -71 508 -264 559 -602 36 -233 8 -447 -81 -630 -39 -80 -61 -109 -134 -182 -73 -72 -102 -93 -181 -131 -158 -76 -276 -96 -561 -97 l-188 0 0 836 0 837 248 -6 c191 -4 268 -10 338 -25z" fill="#056839"/>
<path d="M21110 11815 l0 -1155 195 0 195 0 0 1155 0 1155 -195 0 -195 0 0 -1155z" fill="#056839"/>
<path d="M24570 11815 l0 -1155 635 0 635 0 0 160 0 160 -445 0 -445 0 0 995 0 995 -190 0 -190 0 0 -1155z" fill="#056839"/>
<path d="M30880 11815 l0 -1155 195 0 195 0 0 1155 0 1155 -195 0 -195 0 0 -1155z" fill="#056839"/>
<path d="M31840 11815 l0 -1155 650 0 650 0 0 160 0 160 -457 2 -458 3 0 340 0 340 398 3 397 2 0 160 0 160 -400 0 -400 0 2 328 3 327 433 3 432 2 0 160 0 160 -625 0 -625 0 0 -1155z" fill="#056839"/>
<path d="M5395 12644 c-44 -11 -100 -36 -139 -63 -22 -15 -56 -33 -74 -39 -25 -9 -591 -10 -2170 -6 -1338 3 -2142 2 -2150 -4 -21 -14 -18 -83 4 -99 14 -10 134 -13 578 -14 309 -1 1248 -5 2088 -8 l1527 -6 28 -21 c15 -11 38 -36 51 -54 12 -18 30 -39 40 -46 14 -9 137 -12 527 -13 281 0 546 0 590 -1 432 -4 464 -3 489 14 18 11 26 25 26 46 0 19 9 36 28 50 l27 22 3096 -7 3096 -7 17 23 c21 30 20 52 -1 77 l-18 21 -3130 8 c-2513 6 -3134 11 -3152 21 -13 7 -30 26 -38 42 -31 60 -4 58 -690 63 -346 3 -639 4 -650 1z" fill="#056839"/>
<path d="M5075 12123 c-22 -9 -59 -31 -83 -50 -23 -19 -56 -38 -72 -43 -17 -5 -908 -6 -2035 -3 -1624 5 -2007 4 -2020 -7 -9 -7 -15 -28 -15 -51 0 -31 5 -41 23 -49 13 -5 828 -13 1972 -18 1415 -6 1957 -12 1977 -20 15 -6 39 -29 52 -51 42 -66 43 -66 326 -66 236 0 260 2 326 23 90 28 104 28 194 -3 70 -24 84 -25 314 -25 266 0 313 5 596 69 97 22 211 44 253 50 106 15 3039 15 3053 1 7 -7 518 -10 1568 -8 1529 3 1558 3 1572 22 19 27 18 59 -3 84 l-18 21 -3039 7 c-1672 4 -3051 10 -3065 14 -15 3 -36 22 -48 41 -12 19 -29 43 -36 54 -14 20 -27 20 -883 22 -780 2 -873 0 -909 -14z" fill="#056839"/>
<path d="M4833 11630 c-18 -4 -41 -14 -51 -21 -11 -8 -38 -29 -62 -47 -24 -17 -61 -37 -82 -43 -28 -7 -604 -8 -1905 -3 -1599 6 -1866 5 -1874 -7 -14 -23 -10 -85 6 -99 12 -10 398 -15 1873 -22 2043 -10 1899 -5 1978 -72 77 -65 10 -61 932 -64 566 -2 855 1 881 8 28 7 45 20 59 44 11 19 32 42 47 52 25 16 197 17 3225 11 l3199 -6 16 21 c20 29 19 61 -2 86 l-18 21 -3215 8 c-3034 8 -3217 9 -3254 26 -21 9 -58 35 -82 57 -24 22 -55 43 -71 47 -15 4 -179 8 -363 8 l-335 0 -63 -43 c-35 -24 -75 -48 -90 -53 -43 -16 -90 -1 -139 44 -38 35 -54 42 -101 48 -76 10 -469 9 -509 -1z" fill="#056839"/>
<path d="M4813 11130 c-18 -6 -47 -29 -65 -51 -65 -81 134 -74 -1993 -74 l-1900 0 -3 -49 c-2 -27 1 -53 6 -58 12 -12 356 -15 2307 -23 1047 -4 1592 -10 1615 -17 19 -5 52 -23 73 -40 21 -16 58 -38 83 -50 45 -19 61 -20 968 -16 996 3 946 0 967 55 14 38 51 54 130 56 41 1 1418 -2 3060 -7 l2986 -9 23 23 c17 17 21 29 16 54 -3 17 -14 37 -23 44 -13 9 -317 12 -1432 13 -779 1 -2174 5 -3101 8 -1626 6 -1686 7 -1720 25 -19 10 -52 34 -72 52 -73 65 -20 61 -999 68 -585 4 -905 2 -926 -4z" fill="#056839"/>
<path d="M4944 10579 c-100 -90 -38 -84 -819 -84 -379 0 -1261 2 -1960 5 -1041 5 -1274 4 -1292 -7 -18 -10 -23 -23 -23 -52 0 -21 6 -43 13 -49 8 -7 636 -14 1973 -21 1212 -6 1971 -14 1987 -20 14 -5 38 -26 53 -47 51 -66 21 -64 792 -64 781 0 755 -2 868 71 59 38 64 39 171 46 125 7 194 -5 263 -46 72 -42 99 -51 151 -51 56 0 96 16 104 40 3 10 15 26 26 36 20 18 87 19 2207 16 1203 -1 2502 -5 2888 -9 l701 -6 23 23 c17 17 21 29 16 54 -3 17 -13 36 -21 42 -11 8 -809 13 -2877 18 -3084 8 -2966 6 -3076 59 -26 13 -69 36 -95 51 -36 21 -66 30 -116 34 -81 5 -101 -8 -101 -68 0 -91 -70 -86 -201 16 -32 24 -69 48 -84 54 -17 6 -292 10 -771 10 l-744 0 -56 -51z" fill="#056839"/>
<path d="M4265 10108 c-16 -6 -53 -28 -81 -49 -106 -81 64 -74 -1716 -70 -1259 3 -1591 1 -1603 -9 -19 -15 -20 -84 -2 -99 10 -8 454 -13 1563 -17 1092 -5 1559 -10 1584 -18 21 -7 44 -25 60 -50 15 -21 35 -43 46 -50 26 -15 1688 -22 1727 -7 15 6 34 26 44 46 22 46 66 62 129 46 25 -6 91 -30 147 -53 l102 -42 181 0 c200 -1 201 -1 235 65 25 50 35 51 316 47 l230 -3 38 -34 c60 -52 110 -71 192 -71 40 0 95 5 123 11 43 9 55 17 71 44 11 19 34 38 51 44 42 15 1437 15 3625 0 1593 -11 1714 -11 1738 5 19 12 25 25 25 51 0 70 163 64 -1985 67 -1067 2 -2275 5 -2685 8 -836 7 -797 3 -968 85 -69 33 -190 65 -243 65 -33 0 -69 -44 -69 -84 0 -64 -16 -68 -272 -64 -246 3 -234 1 -348 78 -108 73 -64 70 -908 70 l-758 0 -89 -26 c-117 -34 -187 -34 -293 -1 -86 28 -156 33 -207 15z" fill="#056839"/>
<path d="M4740 9610 c-732 -5 -689 -2 -759 -63 -19 -16 -55 -39 -80 -51 l-46 -21 -1487 4 c-1186 3 -1491 1 -1503 -9 -18 -15 -20 -83 -2 -98 8 -7 478 -13 1483 -18 1020 -5 1482 -10 1505 -18 23 -8 40 -23 54 -49 39 -73 -36 -69 1256 -65 923 3 1159 6 1179 17 14 7 37 30 52 52 36 51 56 50 143 -6 39 -25 86 -48 105 -52 19 -5 126 -8 237 -8 223 0 217 -1 251 66 l17 34 177 3 176 2 45 -30 c99 -66 114 -70 324 -70 105 0 203 4 217 10 15 5 32 24 40 44 8 19 24 37 37 41 12 4 1117 4 2455 0 l2432 -7 21 21 c26 26 27 61 4 90 l-18 21 -2450 3 c-1921 2 -2460 6 -2494 15 -24 7 -94 37 -155 66 -136 66 -190 79 -331 80 -126 1 -153 -9 -174 -66 -33 -87 -41 -90 -221 -85 -163 4 -227 21 -315 82 -92 63 -114 68 -300 72 -158 4 -172 3 -203 -16 -18 -12 -36 -29 -39 -39 -3 -9 -15 -30 -26 -46 -18 -26 -24 -28 -64 -23 -25 2 -90 27 -146 55 -56 27 -126 55 -155 61 -33 7 -149 10 -310 9 -141 -2 -561 -5 -932 -8z" fill="#056839"/>
<path d="M3906 9094 c-21 -7 -58 -32 -82 -54 -82 -76 45 -70 -1533 -70 -1089 0 -1420 -3 -1429 -12 -19 -19 -15 -86 6 -96 9 -5 610 -12 1398 -15 957 -4 1390 -10 1410 -17 16 -6 48 -31 71 -55 33 -34 52 -45 86 -50 24 -4 257 -7 518 -8 715 -3 3995 13 4067 19 57 5 67 10 102 46 l40 40 2233 -6 c1800 -5 2237 -4 2257 7 20 10 26 21 28 60 2 33 -1 49 -11 53 -8 3 -1034 8 -2280 12 l-2266 7 -119 62 c-167 87 -191 91 -463 93 -240 1 -274 -4 -324 -49 -11 -10 -30 -21 -42 -24 -26 -6 -194 22 -308 52 -79 20 -92 21 -1700 20 -1377 0 -1626 -2 -1659 -15z" fill="#056839"/>
<path d="M22270 9039 c-186 -20 -352 -78 -493 -172 -92 -61 -222 -191 -280 -280 -92 -138 -158 -320 -188 -512 -19 -119 -16 -400 5 -510 79 -417 333 -726 695 -844 121 -39 228 -55 386 -54 330 0 576 94 779 297 169 169 274 392 317 671 19 121 16 390 -5 509 -84 469 -391 799 -823 882 -96 18 -289 25 -393 13z m313 -344 c277 -58 466 -296 513 -645 45 -336 -20 -641 -175 -824 -130 -153 -299 -227 -521 -228 -205 0 -331 51 -470 191 -135 136 -204 293 -231 522 -55 476 163 884 523 979 90 23 263 26 361 5z" fill="#056839"/>
<path d="M14470 7855 l0 -1155 650 0 650 0 0 160 0 160 -457 2 -458 3 0 340 0 340 398 3 397 2 0 160 0 160 -400 0 -400 0 2 328 3 327 433 3 432 2 0 160 0 160 -625 0 -625 0 0 -1155z" fill="#056839"/>
<path d="M16180 7855 l0 -1155 190 0 190 0 0 419 0 419 243 4 c218 5 251 8 338 31 268 71 458 242 536 482 34 108 43 302 19 420 -61 298 -296 484 -659 524 -53 6 -267 11 -477 11 l-380 0 0 -1155z m767 835 c247 -32 364 -160 365 -399 0 -145 -38 -244 -125 -324 -98 -89 -206 -117 -454 -117 l-173 0 0 425 0 425 158 0 c86 0 189 -5 229 -10z" fill="#056839"/>
<path d="M18110 7855 l0 -1155 195 0 195 0 0 1155 0 1155 -195 0 -195 0 0 -1155z" fill="#056839"/>
<path d="M19070 7856 l0 -1156 353 0 c358 0 513 9 647 36 381 79 672 293 830 613 79 159 111 313 111 545 0 353 -87 601 -276 791 -160 161 -359 252 -660 301 -79 13 -196 18 -552 21 l-453 5 0 -1156z m842 824 c138 -13 219 -35 333 -90 176 -85 288 -227 339 -432 39 -158 40 -409 1 -558 -63 -242 -212 -419 -427 -507 -133 -53 -207 -65 -465 -70 l-243 -5 0 829 c0 456 3 833 7 836 10 10 344 8 455 -3z" fill="#056839"/>
<path d="M23930 7855 l0 -1155 190 0 190 0 0 471 0 471 133 -4 c117 -3 139 -7 189 -30 71 -33 143 -99 204 -188 25 -38 133 -214 239 -392 l192 -323 221 -3 c122 -1 222 0 222 2 0 11 -446 705 -498 775 -76 104 -145 175 -221 229 -54 39 -61 47 -45 53 10 4 51 19 89 34 203 78 346 239 391 441 24 109 16 274 -18 366 -53 142 -152 250 -291 317 -167 80 -258 91 -779 91 l-408 0 0 -1155z m832 834 c175 -37 266 -142 276 -319 10 -185 -64 -312 -225 -388 -57 -26 -62 -27 -280 -30 l-223 -4 0 376 0 376 200 0 c109 0 223 -5 252 -11z" fill="#056839"/>
<path d="M4644 8600 l-872 -5 -56 -40 c-31 -22 -75 -51 -99 -65 l-42 -25 -1359 -2 c-1079 -2 -1361 -5 -1368 -15 -12 -17 -1 -69 18 -88 13 -13 178 -16 1362 -21 1034 -5 1353 -9 1372 -18 14 -7 34 -27 45 -44 40 -63 -136 -60 2570 -53 1359 4 2482 9 2498 12 15 4 37 17 50 31 55 60 -121 56 2184 48 1674 -6 2106 -5 2118 5 20 16 20 84 0 100 -13 11 -432 14 -2123 18 l-2107 5 -46 22 c-25 13 -68 41 -96 63 -27 22 -68 49 -91 61 l-41 21 -1523 -2 c-838 -2 -1915 -5 -2394 -8z" fill="#056839"/>
<path d="M5415 8110 c-1923 -6 -1754 2 -1828 -79 -76 -83 69 -76 -1396 -72 -718 1 -1314 -1 -1323 -4 -14 -6 -18 -19 -18 -59 l0 -53 173 -6 c94 -4 672 -7 1282 -7 611 -1 1140 -4 1177 -8 59 -7 71 -12 111 -49 38 -35 54 -42 103 -49 33 -4 885 -4 1894 0 1009 3 2123 7 2475 7 693 1 724 3 826 55 l54 27 2054 -7 c1546 -5 2057 -4 2067 5 19 16 18 84 -2 103 -14 14 -211 16 -2017 16 -1330 0 -2014 4 -2039 10 -25 7 -52 29 -89 71 -28 33 -70 70 -93 82 l-41 22 -825 0 c-454 0 -1599 -2 -2545 -5z" fill="#056839"/>
<path d="M6760 7619 c-558 -3 -1484 -7 -2058 -8 -863 -1 -1048 -3 -1075 -15 -18 -7 -53 -37 -79 -64 -89 -96 59 -87 -1406 -85 l-1292 2 0 -60 0 -59 93 -1 c50 0 641 -4 1312 -8 l1220 -6 105 -53 105 -52 1140 1 c627 1 1349 4 1605 8 l465 7 80 34 c70 29 90 33 160 32 44 0 121 -10 170 -22 241 -56 127 -52 1450 -47 1106 5 1226 7 1280 22 33 9 72 23 87 31 23 12 249 14 1481 14 1117 0 1456 3 1465 12 14 14 16 94 3 102 -5 4 -661 9 -1458 12 -884 3 -1468 9 -1500 15 -28 6 -67 21 -85 34 -48 35 -67 42 -181 66 -146 31 -384 31 -557 0 -129 -23 -320 -40 -451 -41 -62 0 -81 4 -103 21 -14 11 -26 29 -26 39 0 10 -11 32 -24 47 l-24 28 -444 0 c-243 0 -900 -3 -1458 -6z" fill="#056839"/>
<path d="M8647 7111 c-1071 -8 -969 3 -997 -112 -12 -49 -21 -66 -40 -76 -20 -10 -114 -12 -435 -9 l-410 5 -35 43 c-62 76 -109 117 -148 127 -25 7 -519 8 -1482 3 -1609 -9 -1462 -2 -1578 -80 -124 -85 20 -76 -1407 -82 -1225 -5 -1270 -6 -1273 -23 -2 -11 -1 -34 2 -52 6 -31 9 -33 59 -38 29 -4 595 -7 1257 -8 663 -1 1242 -5 1288 -8 63 -6 89 -13 110 -30 15 -12 46 -31 69 -41 41 -20 63 -20 1456 -18 l1414 3 54 35 54 35 511 0 511 0 38 -33 37 -34 752 5 751 4 130 28 c181 39 310 39 418 2 109 -38 287 -39 449 -2 l111 25 1371 0 c1054 0 1375 3 1384 12 16 16 15 73 -2 91 -12 12 -217 15 -1354 19 -1045 5 -1343 9 -1359 18 -11 7 -28 28 -38 47 -26 47 -79 99 -128 126 -41 21 -52 22 -327 23 -157 1 -702 -2 -1213 -5z" fill="#056839"/>
<path d="M8250 6610 c-672 -6 -686 -6 -758 -28 -95 -29 -171 -68 -252 -128 l-65 -49 -285 3 c-320 3 -316 2 -351 77 -26 56 -67 91 -122 106 -31 8 -388 9 -1407 3 l-1365 -9 -49 -24 c-27 -13 -74 -48 -105 -78 -31 -29 -67 -56 -81 -60 -13 -3 -594 -3 -1291 0 l-1267 7 -6 -43 c-9 -58 0 -75 37 -81 18 -3 610 -8 1316 -11 1150 -5 1288 -7 1318 -22 18 -8 38 -24 43 -34 24 -44 10 -44 1410 -44 1243 0 1328 1 1371 18 25 9 61 29 79 42 l34 25 308 0 309 0 40 -41 41 -41 1131 7 c1091 7 1134 8 1182 27 29 11 86 22 135 25 72 4 94 2 140 -16 30 -12 87 -25 125 -28 89 -7 287 12 387 37 74 19 119 20 1440 20 1048 0 1367 3 1376 12 16 16 15 83 0 95 -9 7 -487 12 -1351 16 -1033 4 -1341 8 -1352 17 -8 7 -19 29 -25 50 -16 58 -51 103 -100 127 -40 20 -64 23 -205 25 -190 4 -234 -6 -302 -66 -57 -50 -98 -53 -157 -13 -78 54 -177 69 -276 42 -105 -29 -113 -29 -176 3 -41 21 -78 31 -124 34 -36 2 -373 1 -750 -2z" fill="#056839"/>
<path d="M9722 6095 c-64 -14 -138 -50 -161 -79 -7 -8 -28 -20 -46 -26 -43 -14 -67 -2 -99 49 -13 21 -38 43 -54 50 -23 10 -282 10 -1203 3 -1339 -10 -1203 0 -1432 -109 -152 -72 -225 -87 -302 -61 -34 11 -45 22 -71 72 -51 100 97 91 -1391 87 -723 -1 -1328 -7 -1345 -11 -16 -5 -57 -35 -92 -67 -38 -37 -78 -63 -103 -71 -32 -10 -314 -11 -1290 -6 -962 6 -1253 5 -1271 -5 -17 -9 -22 -21 -22 -50 0 -21 6 -43 12 -49 9 -7 458 -13 1318 -19 986 -7 1311 -12 1330 -21 14 -7 46 -27 71 -45 l46 -34 408 -6 c652 -11 2064 -8 2107 3 21 6 50 22 66 35 44 37 77 46 194 52 l106 6 25 -28 c14 -15 32 -36 41 -46 16 -19 41 -20 1099 -14 595 3 1210 7 1367 10 259 5 287 7 318 25 44 26 78 25 164 -5 56 -20 91 -25 162 -25 169 1 338 18 441 45 l100 27 1423 -4 c1256 -3 1424 -1 1432 12 14 22 12 86 -3 98 -9 8 -420 12 -1388 14 -1537 3 -1413 -3 -1437 74 -20 68 -48 102 -89 113 -69 18 -361 22 -431 6z" fill="#056839"/>
<path d="M9495 5597 c-44 -6 -114 -9 -155 -8 -41 2 -714 3 -1495 4 -1501 1 -1444 2 -1562 -45 l-52 -21 -43 29 -43 29 -405 0 c-223 0 -796 -2 -1273 -5 l-868 -5 -57 -61 c-38 -41 -70 -66 -97 -74 -31 -10 -288 -12 -1295 -6 -1017 5 -1260 4 -1280 -7 -32 -16 -40 -76 -14 -98 14 -11 223 -14 1313 -19 1392 -5 1313 -2 1371 -56 14 -12 47 -33 73 -44 l49 -22 2466 6 c3008 7 3596 12 3678 30 32 8 86 24 119 37 l60 24 1535 -4 c1708 -3 1564 -9 1558 66 -2 28 -9 41 -28 50 -20 10 -328 13 -1462 13 -1064 0 -1444 3 -1462 12 -18 7 -32 28 -46 65 -11 30 -20 57 -20 62 0 4 -10 17 -22 28 -21 19 -39 21 -243 26 -132 3 -252 1 -300 -6z" fill="#056839"/>
<path d="M14264 5088 c3 -13 194 -545 424 -1183 l418 -1160 83 0 83 0 452 1183 453 1182 -112 0 -113 0 -10 -27 c-5 -16 -172 -455 -371 -976 -199 -521 -361 -952 -361 -958 0 -5 -3 -9 -8 -9 -4 0 -133 350 -286 778 -153 427 -313 870 -354 985 l-74 207 -115 0 c-115 0 -115 0 -109 -22z" fill="#056839"/>
<path d="M16480 3925 l0 -1185 110 0 110 0 0 1185 0 1185 -110 0 -110 0 0 -1185z" fill="#056839"/>
<path d="M17230 3925 l0 -1185 575 0 575 0 0 105 0 105 -460 0 -460 0 0 1080 0 1080 -115 0 -115 0 0 -1185z" fill="#056839"/>
<path d="M18750 3925 l0 -1185 575 0 575 0 0 105 0 105 -465 0 -465 0 0 1080 0 1080 -110 0 -110 0 0 -1185z" fill="#056839"/>
<path d="M20260 3925 l0 -1185 600 0 600 0 0 105 0 105 -490 0 -490 0 0 440 0 440 430 0 430 0 0 105 0 105 -430 0 -430 0 2 433 3 432 458 3 457 2 0 100 0 100 -570 0 -570 0 0 -1185z" fill="#056839"/>
<path d="M22240 4283 c0 -494 -4 -864 -10 -918 -34 -301 -140 -439 -346 -453 -63 -4 -154 6 -221 24 -23 6 -23 5 -23 -99 l0 -106 58 -13 c83 -18 254 -15 327 6 180 53 305 180 370 377 59 176 58 158 62 1122 l4 887 -110 0 -111 0 0 -827z" fill="#056839"/>
<path d="M22953 4278 c4 -810 4 -836 26 -930 47 -214 104 -330 217 -444 143 -145 375 -217 639 -200 250 17 429 94 560 239 65 71 146 227 171 327 47 188 47 174 51 1028 l4 812 -110 0 -110 0 -4 -817 c-3 -794 -4 -821 -25 -913 -24 -107 -82 -234 -136 -297 -51 -59 -147 -119 -230 -146 -95 -29 -319 -32 -409 -4 -208 64 -329 196 -386 420 -37 142 -41 246 -41 1012 l0 745 -111 0 -111 0 5 -832z" fill="#056839"/>
<path d="M25120 3925 l0 -1185 115 0 115 0 0 1185 0 1185 -115 0 -115 0 0 -1185z" fill="#056839"/>
<path d="M25880 3925 l0 -1185 110 0 110 0 0 540 0 540 430 0 430 0 0 100 0 100 -427 2 -428 3 0 440 0 440 458 3 457 2 0 100 0 100 -570 0 -570 0 0 -1185z" fill="#056839"/>
<path d="M6295 5089 c-2708 -11 -2634 -10 -2672 -31 -17 -10 -41 -33 -53 -53 -43 -70 60 -65 -1391 -65 -960 0 -1315 -3 -1325 -11 -8 -6 -14 -29 -14 -50 0 -32 4 -41 23 -48 12 -5 612 -12 1332 -16 767 -4 1320 -11 1335 -17 14 -5 39 -22 55 -38 17 -16 48 -37 70 -47 38 -17 85 -18 805 -14 438 2 775 7 789 13 14 5 44 27 68 48 36 34 49 40 88 40 40 0 50 -5 94 -49 l49 -49 260 -7 c143 -4 264 -5 269 -2 5 3 781 11 1723 17 1195 7 1727 14 1759 22 25 6 68 22 94 35 l48 24 527 5 c290 3 1040 1 1667 -4 1270 -11 1185 -15 1185 57 0 21 -6 44 -14 50 -11 9 -406 14 -1617 18 -1514 6 -1603 7 -1620 24 -10 10 -21 39 -25 65 -4 29 -16 57 -30 71 l-23 23 -773 -2 c-425 -1 -1632 -5 -2683 -9z" fill="#056839"/>
<path d="M6200 4598 c-1618 -6 -2458 -13 -2485 -20 -26 -7 -56 -27 -88 -59 -91 -93 61 -84 -1433 -81 -1222 4 -1322 3 -1337 -13 -20 -20 -22 -78 -3 -94 9 -8 395 -13 1377 -18 l1364 -8 63 -42 c35 -23 79 -45 98 -49 61 -11 5312 3 5384 15 36 5 101 22 145 37 l80 26 1841 -6 c1687 -6 1843 -5 1858 9 19 19 22 90 4 102 -7 4 -816 10 -1798 13 l-1785 5 -5 77 c-8 122 27 113 -438 114 -218 0 -1497 -3 -2842 -8z" fill="#056839"/>
<path d="M5055 4098 c-771 -5 -1234 -12 -1257 -18 -25 -7 -49 -25 -70 -52 -18 -23 -48 -57 -66 -76 l-33 -35 -1375 7 c-1301 7 -1376 7 -1395 -10 -23 -21 -25 -76 -4 -94 12 -10 319 -14 1453 -19 l1438 -6 44 -30 c23 -16 54 -36 69 -44 22 -12 232 -14 1405 -12 759 1 1383 4 1387 7 4 2 373 4 820 5 1003 1 1292 10 1404 40 l80 22 2052 -7 c2044 -7 2052 -7 2062 13 16 29 13 77 -5 92 -14 11 -356 15 -1983 20 -1081 3 -1967 7 -1968 7 -2 1 -3 29 -3 62 0 32 -5 71 -12 85 -27 59 56 56 -1446 53 -757 -1 -1926 -6 -2597 -10z" fill="#056839"/>
<path d="M5965 3597 c-1218 -5 -2025 -12 -2047 -18 -30 -8 -45 -21 -73 -65 -61 -95 85 -88 -1533 -80 -1599 9 -1472 14 -1472 -65 0 -23 5 -42 12 -44 7 -3 677 -8 1488 -13 1590 -8 1493 -4 1553 -61 l28 -26 1242 0 c683 0 1685 2 2227 5 l985 5 100 29 100 28 2243 -4 c1985 -3 2244 -1 2252 12 15 23 12 76 -4 90 -12 9 -519 13 -2198 17 -1817 4 -2185 8 -2194 19 -7 9 -8 28 -1 62 12 57 4 97 -20 107 -28 12 -516 12 -2688 2z" fill="#056839"/>
<path d="M5546 3088 c-1266 -8 -1545 -12 -1572 -23 -18 -7 -49 -35 -68 -62 -19 -26 -45 -55 -58 -63 -20 -13 -205 -15 -1506 -15 -1307 0 -1484 -2 -1492 -15 -15 -23 -12 -76 4 -89 11 -9 351 -13 1383 -17 752 -2 1437 -7 1521 -10 l152 -6 48 -39 c26 -22 65 -45 87 -51 58 -16 3714 -15 3805 2 36 6 99 26 140 43 l75 32 2488 -4 c2369 -3 2489 -2 2507 14 23 20 27 77 8 93 -9 7 -802 13 -2389 19 -1863 7 -2380 11 -2392 21 -9 8 -16 36 -19 77 -7 109 48 100 -611 101 -315 1 -1265 -3 -2111 -8z" fill="#056839"/>
<path d="M5337 2570 l-1169 -5 -19 -24 c-10 -13 -19 -36 -19 -51 0 -32 -22 -60 -48 -61 -9 0 -740 0 -1624 1 l-1608 1 -12 -26 c-18 -41 0 -78 42 -86 19 -4 773 -9 1675 -12 1629 -6 1641 -6 1720 -27 44 -12 122 -35 174 -51 l93 -30 1357 4 c1486 4 1409 1 1547 63 l59 26 2776 -7 2777 -7 11 20 c17 31 13 67 -8 86 -18 16 -183 18 -2637 23 l-2618 6 -24 24 c-21 21 -23 30 -17 69 4 30 2 50 -6 60 -13 15 104 15 -2422 4z" fill="#056839"/>
<path d="M5585 2074 c-11 -2 -202 -5 -425 -7 -328 -2 -409 -6 -427 -17 l-22 -14 30 -52 30 -52 -23 -8 c-13 -5 -892 -7 -1953 -5 -1629 3 -1932 1 -1941 -10 -33 -42 -21 -94 23 -103 36 -7 6117 -25 9538 -28 l2639 -3 15 26 c17 30 9 74 -16 84 -10 5 -1420 10 -3133 12 -1713 1 -3192 6 -3287 9 -118 4 -178 10 -190 19 -17 13 -17 15 6 39 15 16 43 29 75 36 53 11 116 43 116 59 0 4 -17 11 -37 15 -38 6 -980 6 -1018 0z" fill="#056839"/>
</g>
</svg>